<?xml version="1.0" encoding="UTF-8" standalone="no"?>
<!-- Generator: Adobe Illustrator 16.0.0, SVG Export Plug-In . SVG Version: 6.00 Build 0)  -->

<svg
   xmlns:dc="http://purl.org/dc/elements/1.1/"
   xmlns:cc="http://creativecommons.org/ns#"
   xmlns:rdf="http://www.w3.org/1999/02/22-rdf-syntax-ns#"
   xmlns:svg="http://www.w3.org/2000/svg"
   xmlns="http://www.w3.org/2000/svg"
   xmlns:sodipodi="http://sodipodi.sourceforge.net/DTD/sodipodi-0.dtd"
   xmlns:inkscape="http://www.inkscape.org/namespaces/inkscape"
   version="1.1"
   id="Capa_1"
   x="0px"
   y="0px"
   width="430.117px"
   height="430.117px"
   viewBox="0 0 430.117 430.117"
   style="enable-background:new 0 0 430.117 430.117;"
   xml:space="preserve"
   inkscape:version="0.91 r13725"
   sodipodi:docname="appmania.svg"><metadata
     id="metadata40"><rdf:RDF><cc:Work
         rdf:about=""><dc:format>image/svg+xml</dc:format><dc:type
           rdf:resource="http://purl.org/dc/dcmitype/StillImage" /><dc:title></dc:title></cc:Work></rdf:RDF></metadata><defs
     id="defs38" /><sodipodi:namedview
     pagecolor="#ffffff"
     bordercolor="#666666"
     borderopacity="1"
     objecttolerance="10"
     gridtolerance="10"
     guidetolerance="10"
     inkscape:pageopacity="0"
     inkscape:pageshadow="2"
     inkscape:window-width="734"
     inkscape:window-height="480"
     id="namedview36"
     showgrid="false"
     inkscape:zoom="0.54868791"
     inkscape:cx="-89.303956"
     inkscape:cy="215.0585"
     inkscape:window-x="0"
     inkscape:window-y="32"
     inkscape:window-maximized="0"
     inkscape:current-layer="Capa_1" /><g
     id="g3"
     style="fill:#ffd200;fill-opacity:1"><path
       id="App_Store"
       d="M0,258.734v-58.366c0-5.346,4.392-9.719,9.772-9.719H112.91l-44.904,77.817H9.772   C4.392,268.466,0,264.102,0,258.734z M73.469,378.249l-32.915,22.3c-4.429,3.01-7.561,1.105-6.947-4.21l4.392-38.153   c0.611-5.315,4.921-7.486,9.582-4.83l25.473,14.552C77.707,370.577,77.898,375.248,73.469,378.249z M81.373,356.743l-25.473-14.557   c-4.657-2.66-6.298-8.625-3.589-13.264l117.954-204.469c2.676-4.646,8.708-6.275,13.362-3.58l25.473,14.519   c4.66,2.695,6.259,8.665,3.589,13.294L94.737,353.169C92.065,357.808,86.028,359.399,81.373,356.743z M171.144,268.466   l44.904-77.817h25.856l36.463,77.817H171.144z M317.394,291.688c-10.197-5.092-60.984-121.752-73.996-152.19   c-13.026-30.439-52.358-111.462-39.635-117.767c9.049-4.52,41.543,59.281,65.902,97.584   c24.324,38.305,75.19,137.068,81.449,148.315c6.227,11.276-5.992,20.676-12.787,23.49   C331.525,293.934,327.587,296.739,317.394,291.688z M350.768,345.31l-15.345-24.134c-3.174-5.022-1.526-11.22,3.621-13.866   l14.627-7.49c5.157-2.623,11.612-0.495,14.356,4.756l12.105,23.181c2.754,5.241,0.878,11.972-4.088,14.935l-10.459,6.227   C360.62,351.918,353.941,350.284,350.768,345.31z M407.244,408.613c-3.206-10.226-27.685-10.902-38.644-26.299   c-10.995-15.346-1.908-23.252,1.909-26.901C414.959,330.486,407.244,408.613,407.244,408.613z M430.117,258.734   c0,5.367-4.391,9.731-9.772,9.731h-51.627c-0.569-3.001-1.493-6.002-3.053-8.816c-1.344-2.395-4.741-8.854-9.474-17.856   c-6.833-12.993-16.647-31.575-27.153-51.144h91.302c5.382,0,9.773,4.373,9.773,9.719v58.366H430.117z"
       style="fill:#ffd200;fill-opacity:1" /></g><g
     id="g6" /><g
     id="g8" /><g
     id="g10" /><g
     id="g12" /><g
     id="g14" /><g
     id="g16" /><g
     id="g18" /><g
     id="g20" /><g
     id="g22" /><g
     id="g24" /><g
     id="g26" /><g
     id="g28" /><g
     id="g30" /><g
     id="g32" /><g
     id="g34" /></svg>