<?xml version="1.0" encoding="UTF-8" standalone="no"?>
<!-- Created with Inkscape (http://www.inkscape.org/) -->

<svg
   xmlns:dc="http://purl.org/dc/elements/1.1/"
   xmlns:cc="http://creativecommons.org/ns#"
   xmlns:rdf="http://www.w3.org/1999/02/22-rdf-syntax-ns#"
   xmlns:svg="http://www.w3.org/2000/svg"
   xmlns="http://www.w3.org/2000/svg"
   xmlns:sodipodi="http://sodipodi.sourceforge.net/DTD/sodipodi-0.dtd"
   xmlns:inkscape="http://www.inkscape.org/namespaces/inkscape"
   width="800"
   height="800"
   viewBox="0 0 800.00001 800.00001"
   id="svg5314"
   version="1.1"
   inkscape:version="0.91 r13725"
   enable-background="new"
   sodipodi:docname="codecrush.svg">
  <defs
     id="defs5316">
    <filter
       inkscape:collect="always"
       style="color-interpolation-filters:sRGB"
       id="filter7088"
       x="-0.042301534"
       width="1.0846031"
       y="-0.044137461"
       height="1.0882749">
      <feGaussianBlur
         inkscape:collect="always"
         stdDeviation="0.42301825"
         id="feGaussianBlur7090" />
    </filter>
  </defs>
  <sodipodi:namedview
     id="base"
     pagecolor="#ffffff"
     bordercolor="#666666"
     borderopacity="1.0"
     inkscape:pageopacity="0.0"
     inkscape:pageshadow="2"
     inkscape:zoom="0.35"
     inkscape:cx="-487.85714"
     inkscape:cy="62.857143"
     inkscape:document-units="px"
     inkscape:current-layer="layer2"
     showgrid="false"
     units="px"
     inkscape:window-width="1366"
     inkscape:window-height="694"
     inkscape:window-x="0"
     inkscape:window-y="32"
     inkscape:window-maximized="1" />
  <metadata
     id="metadata5319">
    <rdf:RDF>
      <cc:Work
         rdf:about="">
        <dc:format>image/svg+xml</dc:format>
        <dc:type
           rdf:resource="http://purl.org/dc/dcmitype/StillImage" />
        <dc:title />
      </cc:Work>
    </rdf:RDF>
  </metadata>
  <g
     inkscape:label="Layer 1"
     inkscape:groupmode="layer"
     id="layer1"
     transform="translate(0,-252.36216)">
    <circle
       style="opacity:1;fill:#2196f3;fill-opacity:1;stroke:#2196f3;stroke-width:1;stroke-opacity:1"
       id="path5866"
       cx="400.28571"
       cy="652.64789"
       r="391.42856" />
  </g>
  <g
     inkscape:groupmode="layer"
     id="layer2"
     inkscape:label="Layer 2"
     style="display:inline">
    <g
       style="opacity:0.556;fill:#000000;fill-opacity:1;filter:url(#filter7088)"
       id="g5997"
       transform="matrix(19.383605,0,0,19.383605,170.82372,181.09031)">
      <path
         style="fill:#000000;fill-opacity:1"
         id="path5999"
         d="m 17.469,19.994 0,-1.358 -0.099,-0.088 c -0.117,0.076 -0.253,0.124 -0.401,0.131 -0.016,0 -0.032,0 -0.046,0 -0.157,0 -0.304,-0.043 -0.431,-0.119 l 0,1.369 c -0.492,0.172 -0.85,0.637 -0.85,1.191 l 2.522,0 c 10e-4,-0.494 -0.282,-0.921 -0.695,-1.126 l 0,0 z m 0,0"
         inkscape:connector-curvature="0" />
      <path
         style="fill:#000000;fill-opacity:1"
         id="path6001"
         d="m 20.554,19.929 0,-1.372 c -0.123,0.078 -0.27,0.122 -0.426,0.122 -0.017,0 -0.033,0 -0.047,0 -0.148,-0.007 -0.284,-0.056 -0.401,-0.131 l -0.098,0.088 0,1.357 c -0.413,0.207 -0.696,0.634 -0.696,1.125 l 2.519,0 c -0.001,-0.552 -0.355,-1.02 -0.851,-1.189 l 0,0 z m 0,0"
         inkscape:connector-curvature="0" />
      <path
         style="fill:#000000;fill-opacity:1"
         id="path6003"
         d="M 22.244,13.377"
         inkscape:connector-curvature="0" />
      <path
         style="fill:#000000;fill-opacity:1"
         id="path6005"
         d="m 16.492,16.141 0,0.992 c 0.114,-0.068 0.246,-0.108 0.385,-0.116 0.226,-0.013 0.433,0.065 0.589,0.203 l -0.044,-1.08 -0.93,10e-4 z"
         inkscape:connector-curvature="0" />
      <path
         style="fill:#000000;fill-opacity:1"
         id="path6007"
         d="m 19.703,16.14 -0.045,1.08 c 0.157,-0.137 0.364,-0.215 0.59,-0.203 0.139,0.008 0.271,0.048 0.385,0.116 l 0,-0.992 -0.93,-10e-4 z"
         inkscape:connector-curvature="0" />
      <polygon
         style="fill:#000000;fill-opacity:1"
         id="polygon6009"
         points="16.492,15.843 17.466,15.843 19.578,15.843 20.554,15.843 21.185,15.843 21.45,11.773 21.516,10.797 19.794,10.794 17.253,10.797 15.531,10.797 15.594,11.773 15.861,15.843 " />
      <path
         style="fill:#000000;fill-opacity:1"
         id="path6011"
         d="m 23.881,16.192 c 0.002,-0.015 -0.001,-0.03 -0.001,-0.045 0,-0.016 0.001,-0.031 0.001,-0.047 0,-0.242 -0.197,-0.442 -0.44,-0.439 l -0.07,0 0,-1.576 c -0.14,0.102 -0.306,0.16 -0.488,0.16 -0.015,0 -0.03,0 -0.045,0 -0.151,-0.008 -0.287,-0.057 -0.403,-0.132 l -0.04,0.035 0,1.514 -0.061,0 c -0.246,0 -0.443,0.197 -0.443,0.442 0,0.003 0,0.004 0,0.007 -0.004,0.028 -0.009,0.057 -0.009,0.084 l 0,0.539 c 0,0.197 0.159,0.355 0.356,0.355 0.194,0 0.356,-0.159 0.356,-0.355 l 0,-0.188 0.579,-0.002 0,0.19 c 0,0.194 0.16,0.354 0.354,0.354 0.197,0 0.356,-0.16 0.356,-0.354 l -0.002,-0.542 z m 0,0"
         inkscape:connector-curvature="0" />
      <g
         style="fill:#000000;fill-opacity:1"
         id="g6013">
        <path
           style="fill:#000000;fill-opacity:1"
           id="path6015"
           d="m 21.693,11.927 c 0.208,0.183 0.461,0.507 0.601,0.901 0.16,-0.165 0.386,-0.261 0.634,-0.246 l 0,0 c 0.118,0.005 0.232,0.038 0.335,0.091 -0.232,-0.828 -0.93,-1.605 -1.506,-1.85 l -0.064,1.104 z"
           inkscape:connector-curvature="0" />
        <path
           style="fill:#000000;fill-opacity:1"
           id="path6017"
           d="M 23.881,16.192"
           inkscape:connector-curvature="0" />
        <circle
           style="fill:#000000;fill-opacity:1"
           id="circle6019"
           r="0.537"
           cy="13.377"
           cx="22.881001" />
      </g>
      <g
         style="fill:#000000;fill-opacity:1"
         id="g6021">
        <path
           style="fill:#000000;fill-opacity:1"
           id="path6023"
           d="M 17.225,4.945 C 17.27,4.672 17.413,4.287 17.675,3.962 17.449,3.912 17.25,3.772 17.132,3.552 l 0,0 c -0.058,-0.104 -0.09,-0.217 -0.1,-0.333 -0.58,0.636 -0.875,1.637 -0.779,2.255 l 0.972,-0.529 z"
           inkscape:connector-curvature="0" />
        <path
           style="fill:#000000;fill-opacity:1"
           id="path6025"
           d="M 19.698,0.841 C 19.683,0.845 19.673,0.858 19.66,0.866 19.646,0.874 19.634,0.881 19.62,0.888 19.414,1.016 19.349,1.289 19.478,1.492 l 0.037,0.062 -1.339,0.83 c 0.158,0.064 0.296,0.176 0.393,0.33 0.008,0.013 0.016,0.025 0.023,0.038 0.073,0.133 0.104,0.274 0.101,0.413 l 0.05,0.015 1.286,-0.797 0.033,0.052 c 0.129,0.209 0.4,0.273 0.609,0.144 0.003,-0.001 0.004,-0.002 0.006,-0.003 0.026,-0.011 0.053,-0.022 0.075,-0.037 L 21.21,2.255 C 21.378,2.151 21.43,1.933 21.325,1.764 21.222,1.598 21.002,1.546 20.835,1.649 l -0.16,0.1 L 20.37,1.258 20.531,1.157 C 20.696,1.055 20.747,0.834 20.645,0.67 20.541,0.502 20.321,0.45 20.156,0.553 l -0.458,0.288 z m 0,0"
           inkscape:connector-curvature="0" />
        <circle
           style="fill:#000000;fill-opacity:1"
           id="circle6027"
           r="0.53600001"
           cy="3.1719999"
           cx="17.832001" />
      </g>
      <circle
         style="fill:#000000;fill-opacity:1"
         id="circle6029"
         r="0.537"
         cy="17.844999"
         cx="16.903" />
      <circle
         style="fill:#000000;fill-opacity:1"
         id="circle6031"
         r="0.53600001"
         cy="17.844999"
         cx="20.145" />
      <g
         style="fill:#000000;fill-opacity:1"
         id="g6033">
        <g
           style="fill:#000000;fill-opacity:1"
           id="g6035">
          <path
             style="fill:#000000;fill-opacity:1"
             id="path6037"
             d="m 4.017,11.337 c 0,1.107 -0.898,2.008 -2.008,2.008 C 0.899,13.345 0,12.444 0,11.337 0,10.228 0.899,9.329 2.009,9.329 c 1.11,0 2.008,0.899 2.008,2.008 l 0,0 z m 0,0"
             inkscape:connector-curvature="0" />
          <path
             style="fill:#000000;fill-opacity:1"
             id="path6039"
             d="M 16.131,7.075 C 15.606,6.556 14.757,6.858 14.238,7.383 l -4.802,4.9 -1.732,0.209 C 7.526,12.546 7.261,12.505 7.107,12.4 l -0.24,-0.167 3.4,-2.648 C 10.777,9.188 10.869,8.451 10.472,7.94 10.075,7.431 9.337,7.339 8.826,7.737 L 5.23,10.54 c -0.222,0.173 -0.359,0.412 -0.417,0.666 0,0.001 -0.003,0.004 -0.005,0.006 0,0 -1.327,2.143 -1.327,2.206 -0.268,0.355 -0.323,0.845 -0.099,1.261 l 1.952,3.625 c 0.211,0.393 0.615,0.617 1.031,0.617 0.188,0 0.378,-0.045 0.555,-0.141 0.569,-0.307 0.783,-1.017 0.477,-1.586 l -0.861,-1.6 2.002,0.117 0,6.454 c 0,0.739 0.303,1.337 1.041,1.337 0.739,0 1.042,-0.599 1.042,-1.337 l 0,-7.865 c 0,-0.018 -0.005,-0.035 -0.006,-0.054 L 15.74,8.895 c 0.52,-0.524 0.916,-1.299 0.391,-1.82 l 0,0 z m 0,0"
             inkscape:connector-curvature="0" />
        </g>
      </g>
      <path
         style="fill:#000000;fill-opacity:1"
         id="path6041"
         d="M 23.95,6.85 23.454,6.194 C 23.507,6.011 23.4,5.67 23.174,5.307 L 23.042,5.114 C 23.035,5.105 23.029,5.097 23.023,5.089 23.017,5.081 23.012,5.074 23.006,5.067 23.158,4.855 23.579,4.175 23.337,3.551 23.407,3.425 23.401,3.262 23.308,3.138 23.18,2.969 22.941,2.938 22.773,3.065 22.607,3.191 22.572,3.43 22.7,3.599 c 0.106,0.142 0.296,0.186 0.451,0.12 0.119,0.456 -0.16,0.954 -0.298,1.168 C 22.565,4.571 22.262,4.374 22.072,4.378 L 21.577,3.725 c -0.49,-0.646 -2.77,2.101 -2.77,2.101 l 2.371,3.127 C 21.179,8.952 24.44,7.495 23.95,6.85 Z M 20.36,5.38 20.423,4.931 20.916,5 20.984,4.507 21.433,4.569 21.365,5.062 21.857,5.131 21.794,5.58 21.302,5.511 21.234,6.004 20.785,5.941 20.853,5.447 20.36,5.38 Z m -0.319,1.063 0.363,-0.275 0.437,0.576 0.437,0.577 -0.361,0.275 -0.876,-1.153 z m 2.425,1.195 -0.449,-0.063 0.069,-0.493 -0.494,-0.069 0.063,-0.449 0.493,0.069 0.068,-0.493 0.449,0.063 -0.069,0.493 0.493,0.07 -0.063,0.449 -0.492,-0.069 -0.068,0.492 z"
         inkscape:connector-curvature="0" />
    </g>
    <g
       transform="matrix(19.383605,0,0,19.383605,141.68086,150.23317)"
       id="g3"
       style="opacity:1;fill:#ffffff;fill-opacity:1">
      <path
         inkscape:connector-curvature="0"
         d="m 17.469,19.994 0,-1.358 -0.099,-0.088 c -0.117,0.076 -0.253,0.124 -0.401,0.131 -0.016,0 -0.032,0 -0.046,0 -0.157,0 -0.304,-0.043 -0.431,-0.119 l 0,1.369 c -0.492,0.172 -0.85,0.637 -0.85,1.191 l 2.522,0 c 10e-4,-0.494 -0.282,-0.921 -0.695,-1.126 l 0,0 z m 0,0"
         id="path5"
         style="fill:#ffffff;fill-opacity:1" />
      <path
         inkscape:connector-curvature="0"
         d="m 20.554,19.929 0,-1.372 c -0.123,0.078 -0.27,0.122 -0.426,0.122 -0.017,0 -0.033,0 -0.047,0 -0.148,-0.007 -0.284,-0.056 -0.401,-0.131 l -0.098,0.088 0,1.357 c -0.413,0.207 -0.696,0.634 -0.696,1.125 l 2.519,0 c -0.001,-0.552 -0.355,-1.02 -0.851,-1.189 l 0,0 z m 0,0"
         id="path7"
         style="fill:#ffffff;fill-opacity:1" />
      <path
         inkscape:connector-curvature="0"
         d="M 22.244,13.377"
         id="path9"
         style="fill:#ffffff;fill-opacity:1" />
      <path
         inkscape:connector-curvature="0"
         d="m 16.492,16.141 0,0.992 c 0.114,-0.068 0.246,-0.108 0.385,-0.116 0.226,-0.013 0.433,0.065 0.589,0.203 l -0.044,-1.08 -0.93,10e-4 z"
         id="path11"
         style="fill:#ffffff;fill-opacity:1" />
      <path
         inkscape:connector-curvature="0"
         d="m 19.703,16.14 -0.045,1.08 c 0.157,-0.137 0.364,-0.215 0.59,-0.203 0.139,0.008 0.271,0.048 0.385,0.116 l 0,-0.992 -0.93,-10e-4 z"
         id="path13"
         style="fill:#ffffff;fill-opacity:1" />
      <polygon
         points="19.794,10.794 17.253,10.797 15.531,10.797 15.594,11.773 15.861,15.843 16.492,15.843 17.466,15.843 19.578,15.843 20.554,15.843 21.185,15.843 21.45,11.773 21.516,10.797 "
         id="polygon15"
         style="fill:#ffffff;fill-opacity:1" />
      <path
         inkscape:connector-curvature="0"
         d="m 23.881,16.192 c 0.002,-0.015 -0.001,-0.03 -0.001,-0.045 0,-0.016 0.001,-0.031 0.001,-0.047 0,-0.242 -0.197,-0.442 -0.44,-0.439 l -0.07,0 0,-1.576 c -0.14,0.102 -0.306,0.16 -0.488,0.16 -0.015,0 -0.03,0 -0.045,0 -0.151,-0.008 -0.287,-0.057 -0.403,-0.132 l -0.04,0.035 0,1.514 -0.061,0 c -0.246,0 -0.443,0.197 -0.443,0.442 0,0.003 0,0.004 0,0.007 -0.004,0.028 -0.009,0.057 -0.009,0.084 l 0,0.539 c 0,0.197 0.159,0.355 0.356,0.355 0.194,0 0.356,-0.159 0.356,-0.355 l 0,-0.188 0.579,-0.002 0,0.19 c 0,0.194 0.16,0.354 0.354,0.354 0.197,0 0.356,-0.16 0.356,-0.354 l -0.002,-0.542 z m 0,0"
         id="path17"
         style="fill:#ffffff;fill-opacity:1" />
      <g
         id="g19"
         style="fill:#ffffff;fill-opacity:1">
        <path
           inkscape:connector-curvature="0"
           d="m 21.693,11.927 c 0.208,0.183 0.461,0.507 0.601,0.901 0.16,-0.165 0.386,-0.261 0.634,-0.246 l 0,0 c 0.118,0.005 0.232,0.038 0.335,0.091 -0.232,-0.828 -0.93,-1.605 -1.506,-1.85 l -0.064,1.104 z"
           id="path21"
           style="fill:#ffffff;fill-opacity:1" />
        <path
           inkscape:connector-curvature="0"
           d="M 23.881,16.192"
           id="path23"
           style="fill:#ffffff;fill-opacity:1" />
        <circle
           cx="22.881001"
           cy="13.377"
           r="0.537"
           id="circle25"
           style="fill:#ffffff;fill-opacity:1" />
      </g>
      <g
         id="g27"
         style="fill:#ffffff;fill-opacity:1">
        <path
           inkscape:connector-curvature="0"
           d="M 17.225,4.945 C 17.27,4.672 17.413,4.287 17.675,3.962 17.449,3.912 17.25,3.772 17.132,3.552 l 0,0 c -0.058,-0.104 -0.09,-0.217 -0.1,-0.333 -0.58,0.636 -0.875,1.637 -0.779,2.255 l 0.972,-0.529 z"
           id="path29"
           style="fill:#ffffff;fill-opacity:1" />
        <path
           inkscape:connector-curvature="0"
           d="M 19.698,0.841 C 19.683,0.845 19.673,0.858 19.66,0.866 19.646,0.874 19.634,0.881 19.62,0.888 19.414,1.016 19.349,1.289 19.478,1.492 l 0.037,0.062 -1.339,0.83 c 0.158,0.064 0.296,0.176 0.393,0.33 0.008,0.013 0.016,0.025 0.023,0.038 0.073,0.133 0.104,0.274 0.101,0.413 l 0.05,0.015 1.286,-0.797 0.033,0.052 c 0.129,0.209 0.4,0.273 0.609,0.144 0.003,-0.001 0.004,-0.002 0.006,-0.003 0.026,-0.011 0.053,-0.022 0.075,-0.037 L 21.21,2.255 C 21.378,2.151 21.43,1.933 21.325,1.764 21.222,1.598 21.002,1.546 20.835,1.649 l -0.16,0.1 L 20.37,1.258 20.531,1.157 C 20.696,1.055 20.747,0.834 20.645,0.67 20.541,0.502 20.321,0.45 20.156,0.553 l -0.458,0.288 z m 0,0"
           id="path31"
           style="fill:#ffffff;fill-opacity:1" />
        <circle
           cx="17.832001"
           cy="3.1719999"
           r="0.53600001"
           id="circle33"
           style="fill:#ffffff;fill-opacity:1" />
      </g>
      <circle
         cx="16.903"
         cy="17.844999"
         r="0.537"
         id="circle35"
         style="fill:#ffffff;fill-opacity:1" />
      <circle
         cx="20.145"
         cy="17.844999"
         r="0.53600001"
         id="circle37"
         style="fill:#ffffff;fill-opacity:1" />
      <g
         id="g39"
         style="fill:#ffffff;fill-opacity:1">
        <g
           id="g41"
           style="fill:#ffffff;fill-opacity:1">
          <path
             inkscape:connector-curvature="0"
             d="m 4.017,11.337 c 0,1.107 -0.898,2.008 -2.008,2.008 C 0.899,13.345 0,12.444 0,11.337 0,10.228 0.899,9.329 2.009,9.329 c 1.11,0 2.008,0.899 2.008,2.008 l 0,0 z m 0,0"
             id="path43"
             style="fill:#ffffff;fill-opacity:1" />
          <path
             inkscape:connector-curvature="0"
             d="M 16.131,7.075 C 15.606,6.556 14.757,6.858 14.238,7.383 l -4.802,4.9 -1.732,0.209 C 7.526,12.546 7.261,12.505 7.107,12.4 l -0.24,-0.167 3.4,-2.648 C 10.777,9.188 10.869,8.451 10.472,7.94 10.075,7.431 9.337,7.339 8.826,7.737 L 5.23,10.54 c -0.222,0.173 -0.359,0.412 -0.417,0.666 0,0.001 -0.003,0.004 -0.005,0.006 0,0 -1.327,2.143 -1.327,2.206 -0.268,0.355 -0.323,0.845 -0.099,1.261 l 1.952,3.625 c 0.211,0.393 0.615,0.617 1.031,0.617 0.188,0 0.378,-0.045 0.555,-0.141 0.569,-0.307 0.783,-1.017 0.477,-1.586 l -0.861,-1.6 2.002,0.117 0,6.454 c 0,0.739 0.303,1.337 1.041,1.337 0.739,0 1.042,-0.599 1.042,-1.337 l 0,-7.865 c 0,-0.018 -0.005,-0.035 -0.006,-0.054 L 15.74,8.895 c 0.52,-0.524 0.916,-1.299 0.391,-1.82 l 0,0 z m 0,0"
             id="path45"
             style="fill:#ffffff;fill-opacity:1" />
        </g>
      </g>
      <path
         inkscape:connector-curvature="0"
         d="M 23.95,6.85 23.454,6.194 C 23.507,6.011 23.4,5.67 23.174,5.307 L 23.042,5.114 C 23.035,5.105 23.029,5.097 23.023,5.089 23.017,5.081 23.012,5.074 23.006,5.067 23.158,4.855 23.579,4.175 23.337,3.551 23.407,3.425 23.401,3.262 23.308,3.138 23.18,2.969 22.941,2.938 22.773,3.065 22.607,3.191 22.572,3.43 22.7,3.599 c 0.106,0.142 0.296,0.186 0.451,0.12 0.119,0.456 -0.16,0.954 -0.298,1.168 C 22.565,4.571 22.262,4.374 22.072,4.378 L 21.577,3.725 c -0.49,-0.646 -2.77,2.101 -2.77,2.101 l 2.371,3.127 C 21.179,8.952 24.44,7.495 23.95,6.85 Z M 20.36,5.38 20.423,4.931 20.916,5 20.984,4.507 21.433,4.569 21.365,5.062 21.857,5.131 21.794,5.58 21.302,5.511 21.234,6.004 20.785,5.941 20.853,5.447 20.36,5.38 Z m -0.319,1.063 0.363,-0.275 0.437,0.576 0.437,0.577 -0.361,0.275 -0.876,-1.153 z m 2.425,1.195 -0.449,-0.063 0.069,-0.493 -0.494,-0.069 0.063,-0.449 0.493,0.069 0.068,-0.493 0.449,0.063 -0.069,0.493 0.493,0.07 -0.063,0.449 -0.492,-0.069 -0.068,0.492 z"
         id="path47"
         style="fill:#ffffff;fill-opacity:1" />
    </g>
  </g>
  <g
     inkscape:groupmode="layer"
     id="layer3"
     inkscape:label="Layer 3"
     style="display:inline" />
</svg>
