<?xml version="1.0" encoding="UTF-8" standalone="no"?>
<!-- Generator: Adobe Illustrator 18.1.1, SVG Export Plug-In . SVG Version: 6.00 Build 0)  -->

<svg
   xmlns:dc="http://purl.org/dc/elements/1.1/"
   xmlns:cc="http://creativecommons.org/ns#"
   xmlns:rdf="http://www.w3.org/1999/02/22-rdf-syntax-ns#"
   xmlns:svg="http://www.w3.org/2000/svg"
   xmlns="http://www.w3.org/2000/svg"
   xmlns:sodipodi="http://sodipodi.sourceforge.net/DTD/sodipodi-0.dtd"
   xmlns:inkscape="http://www.inkscape.org/namespaces/inkscape"
   version="1.1"
   id="Capa_1"
   x="0px"
   y="0px"
   viewBox="0 0 525.153 525.153"
   style="enable-background:new 0 0 525.153 525.153;"
   xml:space="preserve"
   inkscape:version="0.91 r13725"
   sodipodi:docname="contactus.svg"><metadata
     id="metadata41"><rdf:RDF><cc:Work
         rdf:about=""><dc:format>image/svg+xml</dc:format><dc:type
           rdf:resource="http://purl.org/dc/dcmitype/StillImage" /></cc:Work></rdf:RDF></metadata><defs
     id="defs39" /><sodipodi:namedview
     pagecolor="#ffffff"
     bordercolor="#666666"
     borderopacity="1"
     objecttolerance="10"
     gridtolerance="10"
     guidetolerance="10"
     inkscape:pageopacity="0"
     inkscape:pageshadow="2"
     inkscape:window-width="734"
     inkscape:window-height="480"
     id="namedview37"
     showgrid="false"
     inkscape:zoom="0.44939283"
     inkscape:cx="262.57651"
     inkscape:cy="262.57651"
     inkscape:window-x="0"
     inkscape:window-y="32"
     inkscape:window-maximized="0"
     inkscape:current-layer="Capa_1" /><g
     id="g3"
     style="fill:#ffd200;opacity:0.9;fill-opacity:1"><path
       d="M481.39,65.644H43.763C19.693,65.644,0,85.337,0,109.407v306.339c0,24.069,19.693,43.763,43.763,43.763H481.39   c24.069,0,43.544-19.693,43.544-43.763l0.219-306.339C525.153,85.337,505.459,65.644,481.39,65.644z M175.051,131.288   c36.323,0,65.644,29.321,65.644,65.644s-29.321,65.644-65.644,65.644s-65.644-29.321-65.644-65.644   S138.728,131.288,175.051,131.288z M306.339,393.864H43.763v-21.881c0-43.763,87.525-67.832,131.288-67.832   s131.288,24.069,131.288,67.832V393.864z M390.582,306.339h35.907l33.019,43.763l-43.544,43.544   c-28.665-21.444-49.868-52.1-59.736-87.307c-3.939-14.026-6.127-28.686-6.127-43.763c0-15.098,2.188-29.759,6.105-43.763   c9.868-35.448,31.093-65.863,59.736-87.307l43.566,43.544l-33.041,43.763h-35.885c-4.814,13.785-7.658,28.446-7.658,43.763   S385.768,292.554,390.582,306.339z"
       id="path5"
       style="fill:#ffd200;fill-opacity:1" /></g><g
     id="g7" /><g
     id="g9" /><g
     id="g11" /><g
     id="g13" /><g
     id="g15" /><g
     id="g17" /><g
     id="g19" /><g
     id="g21" /><g
     id="g23" /><g
     id="g25" /><g
     id="g27" /><g
     id="g29" /><g
     id="g31" /><g
     id="g33" /><g
     id="g35" /></svg>