<?xml version="1.0" encoding="UTF-8" standalone="no"?>
<!-- Created with Inkscape (http://www.inkscape.org/) -->

<svg
   xmlns:dc="http://purl.org/dc/elements/1.1/"
   xmlns:cc="http://creativecommons.org/ns#"
   xmlns:rdf="http://www.w3.org/1999/02/22-rdf-syntax-ns#"
   xmlns:svg="http://www.w3.org/2000/svg"
   xmlns="http://www.w3.org/2000/svg"
   xmlns:sodipodi="http://sodipodi.sourceforge.net/DTD/sodipodi-0.dtd"
   xmlns:inkscape="http://www.inkscape.org/namespaces/inkscape"
   width="800"
   height="800"
   viewBox="0 0 800.00001 800.00001"
   id="svg5314"
   version="1.1"
   inkscape:version="0.91 r13725"
   enable-background="new"
   sodipodi:docname="crazyengineer.svg">
  <defs
     id="defs5316">
    <filter
       inkscape:collect="always"
       style="color-interpolation-filters:sRGB"
       id="filter7739"
       x="-0.046748469"
       width="1.0934969"
       y="-0.040152223"
       height="1.0803044">
      <feGaussianBlur
         inkscape:collect="always"
         stdDeviation="5.8499781"
         id="feGaussianBlur7741" />
    </filter>
  </defs>
  <sodipodi:namedview
     id="base"
     pagecolor="#ffffff"
     bordercolor="#666666"
     borderopacity="1.0"
     inkscape:pageopacity="0.0"
     inkscape:pageshadow="2"
     inkscape:zoom="0.35"
     inkscape:cx="343.57143"
     inkscape:cy="291.42857"
     inkscape:document-units="px"
     inkscape:current-layer="layer1"
     showgrid="false"
     units="px"
     inkscape:window-width="1366"
     inkscape:window-height="694"
     inkscape:window-x="0"
     inkscape:window-y="32"
     inkscape:window-maximized="1" />
  <metadata
     id="metadata5319">
    <rdf:RDF>
      <cc:Work
         rdf:about="">
        <dc:format>image/svg+xml</dc:format>
        <dc:type
           rdf:resource="http://purl.org/dc/dcmitype/StillImage" />
        <dc:title></dc:title>
      </cc:Work>
    </rdf:RDF>
  </metadata>
  <g
     inkscape:label="Layer 1"
     inkscape:groupmode="layer"
     id="layer1"
     transform="translate(0,-252.36216)">
    <circle
       style="opacity:1;fill:#2196f3;fill-opacity:1;stroke:#2196f3;stroke-width:1;stroke-opacity:1"
       id="path5866"
       cx="400.28571"
       cy="652.64789"
       r="391.42856" />
    <g
       style="opacity:0.556;fill:#000000;fill-opacity:1;filter:url(#filter7739)"
       id="g7731"
       transform="matrix(1.506603,0,0,1.506603,168.16701,411.24245)">
      <path
         style="fill:#000000;fill-opacity:1"
         id="path7733"
         d="m 174.833,197.204 c 24.125,0 80.846,-29.034 80.846,-98.603 C 255.679,44.145 248.329,0 174.833,0 101.339,0 93.987,44.145 93.987,98.602 c 0.001,69.568 56.721,98.602 80.846,98.602 z M 106.07,82.145 c 5.68,-10.983 17.963,-23.674 44.381,-23.111 0,0 15.747,38.194 93.05,21.042 0.312,6.101 0.41,12.326 0.41,18.526 0,34.005 -15.016,55.075 -27.612,66.762 -15.871,14.727 -33.493,20.072 -41.465,20.072 -7.972,0 -25.594,-5.345 -41.465,-20.072 -12.597,-11.687 -27.612,-32.757 -27.612,-66.762 -0.001,-5.501 0.078,-11.021 0.313,-16.457 z"
         inkscape:connector-curvature="0" />
      <path
         style="fill:#000000;fill-opacity:1"
         id="path7735"
         d="m 324.926,298.327 c -4.128,-25.664 -12.624,-58.724 -29.668,-70.472 -11.64,-8.026 -52.248,-29.721 -69.589,-38.985 l -0.293,-0.156 c -1.982,-1.059 -4.402,-0.847 -6.169,0.541 -9.084,7.131 -19.034,11.937 -29.574,14.284 -1.807,0.402 -3.304,1.662 -4.009,3.374 l -10.791,26.206 -10.791,-26.206 c -0.705,-1.712 -2.202,-2.971 -4.009,-3.374 -10.54,-2.347 -20.49,-7.153 -29.574,-14.284 -1.769,-1.388 -4.189,-1.6 -6.17,-0.541 -17.134,9.156 -58.238,31.294 -69.83,39.107 -19.62,13.217 -28.198,61.052 -29.719,70.507 -0.15,0.938 -0.063,1.897 0.253,2.792 0.703,1.982 18.709,48.548 149.84,48.548 131.131,0 149.137,-46.565 149.84,-48.548 0.317,-0.896 0.404,-1.856 0.253,-2.793 z M 159.66,282.743 c 0,0.397 -0.234,0.757 -0.599,0.916 l -16.174,7.085 16.174,7.084 c 0.364,0.159 0.599,0.52 0.599,0.916 l 0,5.301 c 0,0.341 -0.174,0.658 -0.462,0.842 -0.163,0.105 -0.351,0.158 -0.538,0.158 -0.144,0 -0.287,-0.031 -0.422,-0.094 l -24.001,-11.15 c -0.352,-0.164 -0.579,-0.518 -0.579,-0.907 l 0,-4.3 c 0,-0.39 0.227,-0.744 0.579,-0.907 l 24.001,-11.15 c 0.311,-0.143 0.672,-0.12 0.96,0.064 0.288,0.184 0.462,0.502 0.462,0.844 l 0,5.298 z m 24.408,-12.667 -10.701,36.252 c -0.125,0.424 -0.516,0.717 -0.959,0.717 l -5.051,0 c -0.314,0 -0.611,-0.149 -0.801,-0.402 -0.188,-0.252 -0.247,-0.578 -0.158,-0.881 l 10.701,-36.252 c 0.125,-0.426 0.516,-0.717 0.959,-0.717 l 5.051,0 c 0.314,0 0.611,0.148 0.801,0.4 0.188,0.253 0.247,0.58 0.158,0.883 z m 31.941,22.968 c 0,0.392 -0.229,0.746 -0.584,0.909 l -24.002,11 c -0.133,0.061 -0.274,0.092 -0.416,0.092 -0.188,0 -0.377,-0.054 -0.54,-0.158 -0.286,-0.185 -0.46,-0.502 -0.46,-0.842 l 0,-5.301 c 0,-0.4 0.238,-0.762 0.605,-0.919 l 16.523,-7.081 -16.523,-7.082 c -0.367,-0.157 -0.605,-0.52 -0.605,-0.919 l 0,-5.3 c 0,-0.341 0.174,-0.658 0.46,-0.842 0.287,-0.184 0.648,-0.209 0.956,-0.068 l 24.002,11.001 c 0.355,0.163 0.584,0.518 0.584,0.909 l 0,4.601 z"
         inkscape:connector-curvature="0" />
      <path
         style="fill:#000000;fill-opacity:1"
         id="path7737"
         d="m 159.284,126.03 c 9.089,-4.743 12.227,-20.58 12.362,-21.287 0.003,-0.011 0.288,-1.062 3.175,-1.062 l 0.23,-0.002 c 2.227,0 2.922,0.732 2.992,1.227 0.135,0.669 3.394,16.453 12.337,21.124 6.024,3.144 13.225,3.803 18.204,3.803 6.387,0 12.802,-1.118 15.964,-2.784 6.82,-3.591 7.426,-6.189 9.905,-21.238 0.094,-0.567 0.254,-1.046 0.478,-1.422 0.07,-0.118 0.192,-0.252 0.361,-0.438 0.652,-0.703 1.637,-1.767 1.577,-4.232 -0.007,-0.311 0.005,-0.846 0.019,-1.443 l 0.003,-0.143 c 0.024,-1.048 0.048,-2.222 0.01,-2.893 -0.216,-3.694 -3.42,-5.183 -5.043,-5.446 -6.12,-1.258 -13.028,-1.896 -20.532,-1.896 -3.237,0 -6.581,0.122 -9.936,0.363 l -0.588,0.042 c -6.839,0.483 -10.607,0.75 -15.186,2.801 -0.927,0.415 -1.956,0.914 -3.063,1.482 -1.573,0.811 -3.912,1.717 -5.108,1.98 -2.018,0.445 -3.211,0.446 -5.23,-0.001 -1.191,-0.263 -3.529,-1.169 -5.106,-1.979 -1.109,-0.57 -2.139,-1.069 -3.061,-1.482 -4.579,-2.051 -8.347,-2.317 -15.195,-2.803 l -0.576,-0.04 c -3.351,-0.239 -6.691,-0.361 -9.928,-0.361 -7.513,0 -14.409,0.635 -20.459,1.88 -1.677,0.274 -4.905,1.77 -5.121,5.457 -0.042,0.678 -0.015,1.908 0.008,2.891 l 0.008,0.432 c 0.01,0.482 0.018,0.903 0.012,1.16 -0.06,2.469 0.924,3.531 1.601,4.262 0.15,0.164 0.27,0.295 0.339,0.412 0.221,0.369 0.381,0.848 0.476,1.42 2.481,15.047 3.087,17.646 9.904,21.236 3.158,1.666 9.574,2.784 15.966,2.784 4.976,-0.001 12.175,-0.66 18.201,-3.804 z m 26.141,-26.423 c 0.163,-0.402 2.071,-3.951 18.895,-4.931 2.908,-0.169 5.366,-0.251 7.515,-0.251 9.369,0 12.29,1.592 13.967,4.158 1.002,1.535 1.708,4.911 1.715,6.982 0.021,4.695 -0.893,13.031 -7.246,16.111 -3.006,1.455 -7.541,2.324 -12.133,2.324 -8.734,0 -15.677,-2.906 -18.572,-7.775 -6.245,-10.489 -4.158,-16.569 -4.141,-16.618 z m -63.28,5.961 c 0.009,-2.076 0.715,-5.455 1.714,-6.985 1.678,-2.567 4.599,-4.159 13.967,-4.159 2.151,0 4.609,0.082 7.514,0.252 16.478,0.96 18.672,4.379 18.93,5.015 0.021,0.061 1.979,6.202 -4.17,16.536 -2.897,4.869 -9.84,7.775 -18.571,7.775 -4.594,0 -9.13,-0.869 -12.136,-2.324 -6.35,-3.077 -7.267,-11.414 -7.248,-16.11 z"
         inkscape:connector-curvature="0" />
    </g>
    <g
       transform="matrix(1.506603,0,0,1.506603,136.16701,389.24245)"
       id="g3"
       style="fill:#ffffff;fill-opacity:1">
      <path
         inkscape:connector-curvature="0"
         d="m 174.833,197.204 c 24.125,0 80.846,-29.034 80.846,-98.603 C 255.679,44.145 248.329,0 174.833,0 101.339,0 93.987,44.145 93.987,98.602 c 0.001,69.568 56.721,98.602 80.846,98.602 z M 106.07,82.145 c 5.68,-10.983 17.963,-23.674 44.381,-23.111 0,0 15.747,38.194 93.05,21.042 0.312,6.101 0.41,12.326 0.41,18.526 0,34.005 -15.016,55.075 -27.612,66.762 -15.871,14.727 -33.493,20.072 -41.465,20.072 -7.972,0 -25.594,-5.345 -41.465,-20.072 -12.597,-11.687 -27.612,-32.757 -27.612,-66.762 -0.001,-5.501 0.078,-11.021 0.313,-16.457 z"
         id="path5"
         style="fill:#ffffff;fill-opacity:1" />
      <path
         inkscape:connector-curvature="0"
         d="m 324.926,298.327 c -4.128,-25.664 -12.624,-58.724 -29.668,-70.472 -11.64,-8.026 -52.248,-29.721 -69.589,-38.985 l -0.293,-0.156 c -1.982,-1.059 -4.402,-0.847 -6.169,0.541 -9.084,7.131 -19.034,11.937 -29.574,14.284 -1.807,0.402 -3.304,1.662 -4.009,3.374 l -10.791,26.206 -10.791,-26.206 c -0.705,-1.712 -2.202,-2.971 -4.009,-3.374 -10.54,-2.347 -20.49,-7.153 -29.574,-14.284 -1.769,-1.388 -4.189,-1.6 -6.17,-0.541 -17.134,9.156 -58.238,31.294 -69.83,39.107 -19.62,13.217 -28.198,61.052 -29.719,70.507 -0.15,0.938 -0.063,1.897 0.253,2.792 0.703,1.982 18.709,48.548 149.84,48.548 131.131,0 149.137,-46.565 149.84,-48.548 0.317,-0.896 0.404,-1.856 0.253,-2.793 z M 159.66,282.743 c 0,0.397 -0.234,0.757 -0.599,0.916 l -16.174,7.085 16.174,7.084 c 0.364,0.159 0.599,0.52 0.599,0.916 l 0,5.301 c 0,0.341 -0.174,0.658 -0.462,0.842 -0.163,0.105 -0.351,0.158 -0.538,0.158 -0.144,0 -0.287,-0.031 -0.422,-0.094 l -24.001,-11.15 c -0.352,-0.164 -0.579,-0.518 -0.579,-0.907 l 0,-4.3 c 0,-0.39 0.227,-0.744 0.579,-0.907 l 24.001,-11.15 c 0.311,-0.143 0.672,-0.12 0.96,0.064 0.288,0.184 0.462,0.502 0.462,0.844 l 0,5.298 z m 24.408,-12.667 -10.701,36.252 c -0.125,0.424 -0.516,0.717 -0.959,0.717 l -5.051,0 c -0.314,0 -0.611,-0.149 -0.801,-0.402 -0.188,-0.252 -0.247,-0.578 -0.158,-0.881 l 10.701,-36.252 c 0.125,-0.426 0.516,-0.717 0.959,-0.717 l 5.051,0 c 0.314,0 0.611,0.148 0.801,0.4 0.188,0.253 0.247,0.58 0.158,0.883 z m 31.941,22.968 c 0,0.392 -0.229,0.746 -0.584,0.909 l -24.002,11 c -0.133,0.061 -0.274,0.092 -0.416,0.092 -0.188,0 -0.377,-0.054 -0.54,-0.158 -0.286,-0.185 -0.46,-0.502 -0.46,-0.842 l 0,-5.301 c 0,-0.4 0.238,-0.762 0.605,-0.919 l 16.523,-7.081 -16.523,-7.082 c -0.367,-0.157 -0.605,-0.52 -0.605,-0.919 l 0,-5.3 c 0,-0.341 0.174,-0.658 0.46,-0.842 0.287,-0.184 0.648,-0.209 0.956,-0.068 l 24.002,11.001 c 0.355,0.163 0.584,0.518 0.584,0.909 l 0,4.601 z"
         id="path7"
         style="fill:#ffffff;fill-opacity:1" />
      <path
         inkscape:connector-curvature="0"
         d="m 159.284,126.03 c 9.089,-4.743 12.227,-20.58 12.362,-21.287 0.003,-0.011 0.288,-1.062 3.175,-1.062 l 0.23,-0.002 c 2.227,0 2.922,0.732 2.992,1.227 0.135,0.669 3.394,16.453 12.337,21.124 6.024,3.144 13.225,3.803 18.204,3.803 6.387,0 12.802,-1.118 15.964,-2.784 6.82,-3.591 7.426,-6.189 9.905,-21.238 0.094,-0.567 0.254,-1.046 0.478,-1.422 0.07,-0.118 0.192,-0.252 0.361,-0.438 0.652,-0.703 1.637,-1.767 1.577,-4.232 -0.007,-0.311 0.005,-0.846 0.019,-1.443 l 0.003,-0.143 c 0.024,-1.048 0.048,-2.222 0.01,-2.893 -0.216,-3.694 -3.42,-5.183 -5.043,-5.446 -6.12,-1.258 -13.028,-1.896 -20.532,-1.896 -3.237,0 -6.581,0.122 -9.936,0.363 l -0.588,0.042 c -6.839,0.483 -10.607,0.75 -15.186,2.801 -0.927,0.415 -1.956,0.914 -3.063,1.482 -1.573,0.811 -3.912,1.717 -5.108,1.98 -2.018,0.445 -3.211,0.446 -5.23,-0.001 -1.191,-0.263 -3.529,-1.169 -5.106,-1.979 -1.109,-0.57 -2.139,-1.069 -3.061,-1.482 -4.579,-2.051 -8.347,-2.317 -15.195,-2.803 l -0.576,-0.04 c -3.351,-0.239 -6.691,-0.361 -9.928,-0.361 -7.513,0 -14.409,0.635 -20.459,1.88 -1.677,0.274 -4.905,1.77 -5.121,5.457 -0.042,0.678 -0.015,1.908 0.008,2.891 l 0.008,0.432 c 0.01,0.482 0.018,0.903 0.012,1.16 -0.06,2.469 0.924,3.531 1.601,4.262 0.15,0.164 0.27,0.295 0.339,0.412 0.221,0.369 0.381,0.848 0.476,1.42 2.481,15.047 3.087,17.646 9.904,21.236 3.158,1.666 9.574,2.784 15.966,2.784 4.976,-0.001 12.175,-0.66 18.201,-3.804 z m 26.141,-26.423 c 0.163,-0.402 2.071,-3.951 18.895,-4.931 2.908,-0.169 5.366,-0.251 7.515,-0.251 9.369,0 12.29,1.592 13.967,4.158 1.002,1.535 1.708,4.911 1.715,6.982 0.021,4.695 -0.893,13.031 -7.246,16.111 -3.006,1.455 -7.541,2.324 -12.133,2.324 -8.734,0 -15.677,-2.906 -18.572,-7.775 -6.245,-10.489 -4.158,-16.569 -4.141,-16.618 z m -63.28,5.961 c 0.009,-2.076 0.715,-5.455 1.714,-6.985 1.678,-2.567 4.599,-4.159 13.967,-4.159 2.151,0 4.609,0.082 7.514,0.252 16.478,0.96 18.672,4.379 18.93,5.015 0.021,0.061 1.979,6.202 -4.17,16.536 -2.897,4.869 -9.84,7.775 -18.571,7.775 -4.594,0 -9.13,-0.869 -12.136,-2.324 -6.35,-3.077 -7.267,-11.414 -7.248,-16.11 z"
         id="path9"
         style="fill:#ffffff;fill-opacity:1" />
    </g>
  </g>
</svg>
