<?xml version="1.0" encoding="UTF-8" standalone="no"?>
<!-- Created with Inkscape (http://www.inkscape.org/) -->

<svg
   xmlns:dc="http://purl.org/dc/elements/1.1/"
   xmlns:cc="http://creativecommons.org/ns#"
   xmlns:rdf="http://www.w3.org/1999/02/22-rdf-syntax-ns#"
   xmlns:svg="http://www.w3.org/2000/svg"
   xmlns="http://www.w3.org/2000/svg"
   xmlns:sodipodi="http://sodipodi.sourceforge.net/DTD/sodipodi-0.dtd"
   xmlns:inkscape="http://www.inkscape.org/namespaces/inkscape"
   width="800"
   height="800"
   viewBox="0 0 800.00001 800.00001"
   id="svg5314"
   version="1.1"
   inkscape:version="0.48.4 r9939"
   enable-background="new"
   sodipodi:docname="gitlab.svg">
  <defs
     id="defs5316">
    <clipPath
       id="clipPath18">
      <path
         d="M 0,501.602 0,0 l 1863.85,0 0,501.602 -1863.85,0 z"
         inkscape:connector-curvature="0"
         id="path20" />
    </clipPath>
    <filter
       inkscape:collect="always"
       id="filter3918"
       x="-0.02741297"
       width="1.0548259"
       y="-0.10186189"
       height="1.2037238">
      <feGaussianBlur
         inkscape:collect="always"
         stdDeviation="2.1289027"
         id="feGaussianBlur3920" />
    </filter>
    <filter
       inkscape:collect="always"
       id="filter3920">
      <feGaussianBlur
         inkscape:collect="always"
         stdDeviation="8.5157017"
         id="feGaussianBlur3922" />
    </filter>
    <filter
       inkscape:collect="always"
       id="filter4028">
      <feGaussianBlur
         inkscape:collect="always"
         stdDeviation="7.2103426"
         id="feGaussianBlur4030" />
    </filter>
    <filter
       inkscape:collect="always"
       id="filter4032">
      <feGaussianBlur
         inkscape:collect="always"
         stdDeviation="4.6501224"
         id="feGaussianBlur4034" />
    </filter>
  </defs>
  <sodipodi:namedview
     id="base"
     pagecolor="#ffffff"
     bordercolor="#666666"
     borderopacity="1.0"
     inkscape:pageopacity="0.0"
     inkscape:pageshadow="2"
     inkscape:zoom="0.39653913"
     inkscape:cx="525.19182"
     inkscape:cy="396.32138"
     inkscape:document-units="px"
     inkscape:current-layer="layer2"
     showgrid="false"
     units="px"
     inkscape:window-width="1366"
     inkscape:window-height="713"
     inkscape:window-x="0"
     inkscape:window-y="30"
     inkscape:window-maximized="1" />
  <metadata
     id="metadata5319">
    <rdf:RDF>
      <cc:Work
         rdf:about="">
        <dc:format>image/svg+xml</dc:format>
        <dc:type
           rdf:resource="http://purl.org/dc/dcmitype/StillImage" />
        <dc:title></dc:title>
      </cc:Work>
    </rdf:RDF>
  </metadata>
  <g
     inkscape:label="Layer 1"
     inkscape:groupmode="layer"
     id="layer1"
     transform="translate(0,-252.36216)">
    <circle
       style="opacity:1;fill:#2196f3;fill-opacity:1;stroke:#2196f3;stroke-width:1;stroke-opacity:1"
       id="path5866"
       cx="400.28571"
       cy="652.64789"
       r="391.42856"
       d="m 791.71426,652.64789 c 0,216.18002 -175.24853,391.42851 -391.42855,391.42851 -216.18003,0 -391.4285628,-175.24849 -391.4285628,-391.42851 0,-216.18003 175.2485328,-391.42856 391.4285628,-391.42856 216.18002,0 391.42855,175.24853 391.42855,391.42856 z" />
  </g>
  <g
     inkscape:groupmode="layer"
     id="layer2"
     inkscape:label="Layer 2"
     style="display:inline">
    <path
       d="m 608.46524,639.43094 c 12.20757,0 22.107,-9.89942 22.107,-22.11011 V 260.96335 c 0,-12.21224 -9.89787,-22.10855 -22.107,-22.10855 H 252.10776 c -12.21224,0 -22.10856,9.89631 -22.10856,22.10855 v 356.35748 c 0,12.20913 9.89476,22.11011 22.10856,22.11011 h 356.35748 z"
       id="path4024"
       inkscape:connector-curvature="0"
       style="opacity:0.556;fill:#000000;filter:url(#filter4028)" />
    <path
       style="fill:#ffffff"
       inkscape:connector-curvature="0"
       id="Blue_1_"
       d="m 577.6081,603.14522 c 12.20757,0 22.107,-9.89942 22.107,-22.11011 V 224.67763 c 0,-12.21224 -9.89787,-22.10855 -22.107,-22.10855 H 221.25062 c -12.21224,0 -22.10856,9.89631 -22.10856,22.10855 v 356.35748 c 0,12.20913 9.89476,22.11011 22.10856,22.11011 H 577.6081 z" />
    <path
       d="M 498.10309,605.71665 V 450.59149 h 52.06795 l 7.79644,-60.45502 h -59.86439 v -38.59672 c 0,-17.50312 4.86034,-29.43093 29.95939,-29.43093 l 32.01265,-0.014 v -54.07146 c -5.53647,-0.73674 -24.53951,-2.38276 -46.64806,-2.38276 -46.15535,0 -77.75454,28.17349 -77.75454,79.91192 v 44.58394 h -52.20162 v 60.45502 h 52.20162 v 155.12516 h 62.43056 z"
       id="path4026"
       inkscape:connector-curvature="0"
       style="opacity:0.55609999;fill:#000000;fill-opacity:1;stroke:#2196f3;stroke-opacity:1;filter:url(#filter4032)" />
    <path
       style="fill:#2196f3;fill-opacity:1;stroke:#2196f3;stroke-opacity:1"
       inkscape:connector-curvature="0"
       id="f"
       d="M 475.53166,603.14522 V 448.02006 h 52.06795 l 7.79644,-60.45502 h -59.86439 v -38.59672 c 0,-17.50312 4.86034,-29.43093 29.95939,-29.43093 l 32.01265,-0.014 v -54.07146 c -5.53647,-0.73674 -24.53951,-2.38276 -46.64806,-2.38276 -46.15535,0 -77.75454,28.17349 -77.75454,79.91192 v 44.58394 h -52.20162 v 60.45502 h 52.20162 v 155.12516 h 62.43056 z" />
  </g>
  <g
     inkscape:groupmode="layer"
     id="layer3"
     inkscape:label="Layer 3"
     style="display:inline" />
</svg>
