<?xml version="1.0" encoding="iso-8859-1"?>
<!-- Generator: Adobe Illustrator 18.0.0, SVG Export Plug-In . SVG Version: 6.00 Build 0)  -->
<!DOCTYPE svg PUBLIC "-//W3C//DTD SVG 1.1//EN" "http://www.w3.org/Graphics/SVG/1.1/DTD/svg11.dtd">
<svg version="1.1" id="Capa_1" xmlns="http://www.w3.org/2000/svg" xmlns:xlink="http://www.w3.org/1999/xlink" x="0px" y="0px"
	 viewBox="0 0 297 297" style="enable-background:new 0 0 297 297;" xml:space="preserve">
<g>
	<path d="M148.431,65.355c-50.518,0-91.463,12.481-91.463,67.821c0,10.227,0.52,21.125,1.85,32.104
		c-9.614,0.274-17.326,8.146-17.326,17.839c0,9.864,7.985,17.863,17.834,17.863c2.396,0,4.679-0.479,6.765-1.34
		c11.278,35.125,35.088,77.54,82.341,77.54c47.265,0,71.074-42.444,82.347-77.588c2.124,0.891,4.45,1.388,6.896,1.388
		c9.85,0,17.837-7.999,17.837-17.863c0-9.744-7.795-17.651-17.477-17.847c1.326-10.976,1.85-21.87,1.85-32.097
		C239.884,77.837,198.939,65.355,148.431,65.355z M148.492,143.37c14.238,0,25.822,11.708,25.822,26.099
		c0,14.39-11.584,26.096-25.822,26.096c-14.239,0-25.823-11.706-25.823-26.096C122.669,155.078,134.253,143.37,148.492,143.37z
		 M91.438,145.926c-1.376,1.439-3.218,2.165-5.063,2.165c-1.738,0-3.478-0.643-4.834-1.938c-2.796-2.671-2.897-7.102-0.228-9.896
		c10.722-11.226,28.114-13.523,42.304-5.59c3.374,1.887,4.579,6.151,2.692,9.525c-1.887,3.374-6.151,4.58-9.526,2.692
		C106.733,137.265,96.599,140.52,91.438,145.926z M185.433,235.382c-17.977,7.285-26.998,10.942-36.94,10.942
		s-18.964-3.657-36.938-10.942c-10.374-4.206-15.601-12.398-13.316-20.869c2.057-7.645,9.273-12.989,17.546-12.989
		c1.168,0,2.343,0.109,3.491,0.325c19.228,3.63,39.219,3.628,58.431,0.001c1.154-0.217,2.329-0.326,3.498-0.326
		c8.271,0,15.485,5.344,17.545,12.993C201.03,222.986,195.804,231.178,185.433,235.382z M215.206,146.153
		c-1.355,1.295-3.097,1.938-4.834,1.938c-1.846,0-3.687-0.726-5.063-2.165c-5.161-5.406-15.294-8.661-25.346-3.041
		c-3.374,1.888-7.64,0.682-9.526-2.692c-1.887-3.374-0.682-7.639,2.692-9.525c14.188-7.936,31.584-5.637,42.304,5.59
		C218.104,139.052,218.002,143.482,215.206,146.153z"/>
	<path d="M148.492,181.565c6.52,0,11.823-5.427,11.823-12.097c0-6.672-5.304-12.099-11.823-12.099s-11.824,5.427-11.824,12.099
		C136.668,176.139,141.973,181.565,148.492,181.565z"/>
	<path d="M181.203,215.523c-0.304,0-0.609,0.028-0.908,0.085c-20.909,3.946-42.688,3.947-63.611-0.001
		c-0.293-0.056-0.598-0.084-0.9-0.084c-1.924,0-3.618,1.107-4.028,2.632c-0.254,0.941,1.762,2.917,5.059,4.254
		c16.29,6.602,24.466,9.917,31.679,9.917c7.213,0,15.39-3.314,31.682-9.917c3.294-1.336,5.31-3.313,5.056-4.25
		C184.819,216.63,183.126,215.523,181.203,215.523z"/>
	<path d="M297,58.267c0-21.201-17.245-38.45-38.442-38.45c-13.586,0-25.976,7.183-32.854,18.482
		c-4.52-1.813-9.363-2.754-14.314-2.754c-13.189,0-25.349,6.854-32.326,17.666c16.775,2.264,30.251,6.636,41.295,13.333
		c22.246,13.493,33.526,35.911,33.526,66.633c0,3.07-0.057,6.11-0.148,9.129c14.422-4.274,25.338-16.791,27.244-32.074
		C290.518,106.07,297,96.522,297,85.784c0-4.389-1.057-8.615-3.085-12.431C295.941,68.602,297,63.459,297,58.267z"/>
	<path d="M42.968,133.177c0-30.723,11.281-53.141,33.528-66.634c11.072-6.715,24.593-11.091,41.431-13.349
		c-6.981-10.802-19.134-17.649-32.315-17.649c-4.951,0-9.795,0.941-14.315,2.754c-6.877-11.3-19.268-18.482-32.854-18.482
		C17.245,19.816,0,37.065,0,58.267c0,5.19,1.059,10.333,3.086,15.087C1.057,77.17,0,81.396,0,85.784
		c0,10.737,6.482,20.285,16.02,24.447c1.9,15.229,12.747,27.711,27.094,32.027C43.024,139.257,42.968,136.233,42.968,133.177z"/>
</g>
<g>
</g>
<g>
</g>
<g>
</g>
<g>
</g>
<g>
</g>
<g>
</g>
<g>
</g>
<g>
</g>
<g>
</g>
<g>
</g>
<g>
</g>
<g>
</g>
<g>
</g>
<g>
</g>
<g>
</g>
</svg>
