<?xml version="1.0" encoding="UTF-8" standalone="no"?>
<!-- Created with Inkscape (http://www.inkscape.org/) -->

<svg
   xmlns:dc="http://purl.org/dc/elements/1.1/"
   xmlns:cc="http://creativecommons.org/ns#"
   xmlns:rdf="http://www.w3.org/1999/02/22-rdf-syntax-ns#"
   xmlns:svg="http://www.w3.org/2000/svg"
   xmlns="http://www.w3.org/2000/svg"
   xmlns:xlink="http://www.w3.org/1999/xlink"
   xmlns:sodipodi="http://sodipodi.sourceforge.net/DTD/sodipodi-0.dtd"
   xmlns:inkscape="http://www.inkscape.org/namespaces/inkscape"
   width="800"
   height="800"
   viewBox="0 0 800.00001 800.00001"
   id="svg5314"
   version="1.1"
   inkscape:version="0.48.4 r9939"
   enable-background="new"
   sodipodi:docname="nodejs.svg">
  <defs
     id="defs5316">
    <clipPath
       id="clipPath18">
      <path
         d="M 0,501.602 0,0 l 1863.85,0 0,501.602 -1863.85,0 z"
         inkscape:connector-curvature="0"
         id="path20" />
    </clipPath>
    <filter
       inkscape:collect="always"
       id="filter3918"
       x="-0.02741297"
       width="1.0548259"
       y="-0.10186189"
       height="1.2037238">
      <feGaussianBlur
         inkscape:collect="always"
         stdDeviation="2.1289027"
         id="feGaussianBlur3920" />
    </filter>
    <filter
       inkscape:collect="always"
       id="filter3920">
      <feGaussianBlur
         inkscape:collect="always"
         stdDeviation="8.5157017"
         id="feGaussianBlur3922" />
    </filter>
  </defs>
  <sodipodi:namedview
     id="base"
     pagecolor="#ffffff"
     bordercolor="#666666"
     borderopacity="1.0"
     inkscape:pageopacity="0.0"
     inkscape:pageshadow="2"
     inkscape:zoom="0.35"
     inkscape:cx="41.441158"
     inkscape:cy="612.10914"
     inkscape:document-units="px"
     inkscape:current-layer="layer2"
     showgrid="false"
     units="px"
     inkscape:window-width="1366"
     inkscape:window-height="713"
     inkscape:window-x="0"
     inkscape:window-y="30"
     inkscape:window-maximized="1" />
  <metadata
     id="metadata5319">
    <rdf:RDF>
      <cc:Work
         rdf:about="">
        <dc:format>image/svg+xml</dc:format>
        <dc:type
           rdf:resource="http://purl.org/dc/dcmitype/StillImage" />
        <dc:title></dc:title>
      </cc:Work>
    </rdf:RDF>
  </metadata>
  <g
     inkscape:label="Layer 1"
     inkscape:groupmode="layer"
     id="layer1"
     transform="translate(0,-252.36216)">
    <circle
       style="opacity:1;fill:#2196f3;fill-opacity:1;stroke:#2196f3;stroke-width:1;stroke-opacity:1"
       id="path5866"
       cx="400.28571"
       cy="652.64789"
       r="391.42856"
       d="m 791.71426,652.64789 c 0,216.18002 -175.24853,391.42851 -391.42855,391.42851 -216.18003,0 -391.4285628,-175.24849 -391.4285628,-391.42851 0,-216.18003 175.2485328,-391.42856 391.4285628,-391.42856 216.18002,0 391.42855,175.24853 391.42855,391.42856 z" />
  </g>
  <g
     inkscape:groupmode="layer"
     id="layer2"
     inkscape:label="Layer 2"
     style="display:inline">
    <g
       id="g3856"
       style="opacity:0.556;fill:#000000;stroke:none;filter:url(#filter3920)"
       transform="translate(190.56412,212.33346)">
      <g
         transform="translate(-359,-360)"
         id="g3858"
         style="fill:#000000">
        <g
           transform="matrix(1,0,0,-1,0,1174.3333)"
           id="g3860"
           style="fill:#000000">
          <g
             id="g3862"
             style="fill:#000000">
            <g
               id="g3864"
               style="fill:#000000">
              <mask
                 fill="white"
                 id="mask3866">
                <use
                   id="use3868"
                   xlink:href="#path-1"
                   x="0"
                   y="0"
                   width="744.09448"
                   height="1052.3622" />
              </mask>
              <g
                 id="g3870"
                 style="fill:#000000" />
              <g
                 id="g3872"
                 style="fill:#000000">
                <g
                   id="g3874"
                   transform="translate(358.66666,358.66666)"
                   style="fill:#000000">
                  <g
                     transform="translate(0.532,0.774933)"
                     id="g3876"
                     style="fill:#000000">
                    <path
                       id="path3878"
                       d="m 491.99999,194.66666 -27.55867,84.81467 -54.61733,168.09733 c -2.80933,8.64799 -15.04533,8.64799 -17.856,0 l -54.61866,-168.09733 -181.36667,0 -54.62,168.09733 c -2.809329,8.64799 -15.045329,8.64799 -17.855995,0 L 28.889333,279.48133 1.332,194.66666 c -2.5146666,-7.736 0.24,-16.21066 6.8199998,-20.992 L 246.66533,0.38533332 485.17999,173.67466 c 6.58,4.78134 9.33333,13.256 6.82,20.992"
                       inkscape:connector-curvature="0"
                       style="fill:#000000" />
                  </g>
                  <g
                     transform="translate(155.19786,1.160267)"
                     id="g3880"
                     style="fill:#000000">
                    <path
                       id="path3882"
                       d="m 91.999998,0 0,0 90.683992,279.09599 -181.36799,0 L 91.999998,0 l 0,0 z"
                       inkscape:connector-curvature="0"
                       style="fill:#000000;stroke:#ffffff;stroke-opacity:1" />
                  </g>
                  <g
                     transform="translate(247.19786,1.160267)"
                     id="g3884"
                     style="fill:#000000">
                    <g
                       id="g3886"
                       style="fill:#000000" />
                  </g>
                  <g
                     transform="translate(28.531199,1.1608)"
                     id="g3888"
                     style="fill:#000000">
                    <path
                       id="path3890"
                       d="m 218.66666,0 -90.684,279.09466 -127.09199336,0 L 218.66666,0 l 0,0 z"
                       inkscape:connector-curvature="0"
                       style="fill:#000000;stroke:#000000;stroke-opacity:1" />
                  </g>
                  <g
                     transform="translate(247.19786,1.1608)"
                     id="g3892"
                     style="fill:#000000">
                    <g
                       id="g3894"
                       style="fill:#000000" />
                  </g>
                  <g
                     transform="translate(0.088533,0.255867)"
                     id="g3896"
                     style="fill:#000000">
                    <path
                       id="path3898"
                       d="m 29.333333,279.99999 0,0 -27.5586664,-84.81466 c -2.51333325,-7.736 0.24,-16.21067 6.8213332,-20.99067 L 247.10933,0.90533331 29.333333,279.99999 l 0,0 z"
                       inkscape:connector-curvature="0"
                       style="fill:#000000;stroke:#cccccc;stroke-opacity:1" />
                  </g>
                  <g
                     transform="translate(247.19786,1.160267)"
                     id="g3900"
                     style="fill:#000000">
                    <g
                       id="g3902"
                       style="fill:#000000" />
                  </g>
                  <g
                     transform="translate(29.421866,280.25559)"
                     id="g3904"
                     style="fill:#000000">
                    <path
                       id="path3906"
                       d="M 0,0 127.092,0 72.473331,168.09733 c -2.810666,8.64933 -15.046666,8.64933 -17.855999,0 L 0,0 0,0 z"
                       inkscape:connector-curvature="0"
                       style="fill:#000000;stroke:#ffffff;stroke-opacity:1" />
                  </g>
                  <g
                     transform="translate(247.19786,1.1608)"
                     id="g3908"
                     style="fill:#000000">
                    <path
                       id="path3910"
                       d="m 0,0 90.683998,279.09466 127.091992,0 L 0,0 0,0 z"
                       inkscape:connector-curvature="0"
                       style="fill:#000000" />
                  </g>
                  <g
                     transform="translate(246.30706,0.255867)"
                     id="g3912"
                     style="fill:#000000">
                    <path
                       id="path3914"
                       d="m 218.66666,279.99999 0,0 27.55867,-84.81466 c 2.51333,-7.736 -0.24,-16.21067 -6.82134,-20.99067 L 0.89066664,0.90533331 218.66666,279.99999 l 0,0 z"
                       inkscape:connector-curvature="0"
                       style="fill:#000000;stroke:#cccccc;stroke-opacity:1" />
                  </g>
                  <g
                     transform="translate(336.97372,280.25559)"
                     id="g3916"
                     style="fill:#000000">
                    <path
                       id="path3918"
                       d="M 128,0 0.90799998,0 55.526665,168.09733 c 2.810667,8.64933 15.046667,8.64933 17.856,0 L 128,0 l 0,0 z"
                       inkscape:connector-curvature="0"
                       style="fill:#000000;stroke:#ffffff;stroke-opacity:1" />
                  </g>
                </g>
              </g>
            </g>
          </g>
        </g>
      </g>
    </g>
    <g
       transform="translate(152.56412,180.61917)"
       style="fill:none;stroke:none"
       id="Page-1">
      <g
         id="gitlab_logo"
         transform="translate(-359,-360)">
        <g
           id="g10"
           transform="matrix(1,0,0,-1,0,1174.3333)">
          <g
             id="g16">
            <g
               id="g18-Clipped">
              <mask
                 id="mask-2"
                 fill="white">
                <use
                   height="1052.3622"
                   width="744.09448"
                   y="0"
                   x="0"
                   xlink:href="#path-1"
                   id="use17" />
              </mask>
              <g
                 id="path22" />
              <g
                 id="g18">
                <g
                   transform="translate(358.66666,358.66666)"
                   id="g21">
                  <g
                     id="g44"
                     transform="translate(0.532,0.774933)">
                    <path
                       style="fill:#fc6d26"
                       inkscape:connector-curvature="0"
                       d="m 491.99999,194.66666 -27.55867,84.81467 -54.61733,168.09733 c -2.80933,8.64799 -15.04533,8.64799 -17.856,0 l -54.61866,-168.09733 -181.36667,0 -54.62,168.09733 c -2.809329,8.64799 -15.045329,8.64799 -17.855995,0 L 28.889333,279.48133 1.332,194.66666 c -2.5146666,-7.736 0.24,-16.21066 6.8199998,-20.992 L 246.66533,0.38533332 485.17999,173.67466 c 6.58,4.78134 9.33333,13.256 6.82,20.992"
                       id="path46" />
                  </g>
                  <g
                     id="g48"
                     transform="translate(155.19786,1.160267)">
                    <path
                       style="fill:#ffffff;stroke:#ffffff;stroke-opacity:1"
                       inkscape:connector-curvature="0"
                       d="m 91.999998,0 0,0 90.683992,279.09599 -181.36799,0 L 91.999998,0 l 0,0 z"
                       id="path50" />
                  </g>
                  <g
                     id="g52"
                     transform="translate(247.19786,1.160267)">
                    <g
                       id="path54" />
                  </g>
                  <g
                     id="g56"
                     transform="translate(28.531199,1.1608)">
                    <path
                       style="fill:#b3b3b3"
                       inkscape:connector-curvature="0"
                       d="m 218.66666,0 -90.684,279.09466 -127.09199336,0 L 218.66666,0 l 0,0 z"
                       id="path58" />
                  </g>
                  <g
                     id="g60"
                     transform="translate(247.19786,1.1608)">
                    <g
                       id="path62" />
                  </g>
                  <g
                     id="g64"
                     transform="translate(0.088533,0.255867)">
                    <path
                       style="fill:#cccccc;stroke:#cccccc;stroke-opacity:1"
                       inkscape:connector-curvature="0"
                       d="m 29.333333,279.99999 0,0 -27.5586664,-84.81466 c -2.51333325,-7.736 0.24,-16.21067 6.8213332,-20.99067 L 247.10933,0.90533331 29.333333,279.99999 l 0,0 z"
                       id="path66" />
                  </g>
                  <g
                     id="g68"
                     transform="translate(247.19786,1.160267)">
                    <g
                       id="path70" />
                  </g>
                  <g
                     id="g72"
                     transform="translate(29.421866,280.25559)">
                    <path
                       style="fill:#ffffff;stroke:#ffffff;stroke-opacity:1"
                       inkscape:connector-curvature="0"
                       d="M 0,0 127.092,0 72.473331,168.09733 c -2.810666,8.64933 -15.046666,8.64933 -17.855999,0 L 0,0 0,0 z"
                       id="path74" />
                  </g>
                  <g
                     id="g76"
                     transform="translate(247.19786,1.1608)">
                    <path
                       style="fill:#b3b3b3"
                       inkscape:connector-curvature="0"
                       d="m 0,0 90.683998,279.09466 127.091992,0 L 0,0 0,0 z"
                       id="path78" />
                  </g>
                  <g
                     id="g80"
                     transform="translate(246.30706,0.255867)">
                    <path
                       style="fill:#cccccc;stroke:#cccccc;stroke-opacity:1"
                       inkscape:connector-curvature="0"
                       d="m 218.66666,279.99999 0,0 27.55867,-84.81466 c 2.51333,-7.736 -0.24,-16.21067 -6.82134,-20.99067 L 0.89066664,0.90533331 218.66666,279.99999 l 0,0 z"
                       id="path82" />
                  </g>
                  <g
                     id="g84"
                     transform="translate(336.97372,280.25559)">
                    <path
                       style="fill:#ffffff;stroke:#ffffff;stroke-opacity:1"
                       inkscape:connector-curvature="0"
                       d="M 128,0 0.90799998,0 55.526665,168.09733 c 2.810667,8.64933 15.046667,8.64933 17.856,0 L 128,0 l 0,0 z"
                       id="path86" />
                  </g>
                </g>
              </g>
            </g>
          </g>
        </g>
      </g>
    </g>
  </g>
  <g
     inkscape:groupmode="layer"
     id="layer3"
     inkscape:label="Layer 3"
     style="display:inline" />
</svg>
