<?xml version="1.0" encoding="UTF-8" standalone="no"?>
<!-- Created with Inkscape (http://www.inkscape.org/) -->

<svg
   xmlns:dc="http://purl.org/dc/elements/1.1/"
   xmlns:cc="http://creativecommons.org/ns#"
   xmlns:rdf="http://www.w3.org/1999/02/22-rdf-syntax-ns#"
   xmlns:svg="http://www.w3.org/2000/svg"
   xmlns="http://www.w3.org/2000/svg"
   xmlns:sodipodi="http://sodipodi.sourceforge.net/DTD/sodipodi-0.dtd"
   xmlns:inkscape="http://www.inkscape.org/namespaces/inkscape"
   width="800"
   height="800"
   viewBox="0 0 800.00001 800.00001"
   id="svg5314"
   version="1.1"
   inkscape:version="0.48.4 r9939"
   enable-background="new"
   sodipodi:docname="facebook.svg">
  <defs
     id="defs5316">
    <clipPath
       id="clipPath18">
      <path
         d="M 0,501.602 0,0 l 1863.85,0 0,501.602 -1863.85,0 z"
         inkscape:connector-curvature="0"
         id="path20" />
    </clipPath>
    <filter
       inkscape:collect="always"
       id="filter3802">
      <feGaussianBlur
         inkscape:collect="always"
         stdDeviation="2.247093"
         id="feGaussianBlur3804" />
    </filter>
    <filter
       inkscape:collect="always"
       id="filter3806">
      <feGaussianBlur
         inkscape:collect="always"
         stdDeviation="1.507653"
         id="feGaussianBlur3808" />
    </filter>
    <filter
       inkscape:collect="always"
       id="filter3810"
       x="-0.13091054"
       width="1.2618211"
       y="-0.13039631"
       height="1.2607926">
      <feGaussianBlur
         inkscape:collect="always"
         stdDeviation="1.507653"
         id="feGaussianBlur3812" />
    </filter>
  </defs>
  <sodipodi:namedview
     id="base"
     pagecolor="#ffffff"
     bordercolor="#666666"
     borderopacity="1.0"
     inkscape:pageopacity="0.0"
     inkscape:pageshadow="2"
     inkscape:zoom="0.39653913"
     inkscape:cx="144.39712"
     inkscape:cy="396.32138"
     inkscape:document-units="px"
     inkscape:current-layer="layer2"
     showgrid="false"
     units="px"
     inkscape:window-width="1366"
     inkscape:window-height="713"
     inkscape:window-x="0"
     inkscape:window-y="30"
     inkscape:window-maximized="1" />
  <metadata
     id="metadata5319">
    <rdf:RDF>
      <cc:Work
         rdf:about="">
        <dc:format>image/svg+xml</dc:format>
        <dc:type
           rdf:resource="http://purl.org/dc/dcmitype/StillImage" />
        <dc:title></dc:title>
      </cc:Work>
    </rdf:RDF>
  </metadata>
  <g
     inkscape:label="Layer 1"
     inkscape:groupmode="layer"
     id="layer1"
     transform="translate(0,-252.36216)">
    <circle
       style="opacity:1;fill:#2196f3;fill-opacity:1;stroke:#2196f3;stroke-width:1;stroke-opacity:1"
       id="path5866"
       cx="400.28571"
       cy="652.64789"
       r="391.42856"
       d="m 791.71426,652.64789 c 0,216.18002 -175.24853,391.42851 -391.42855,391.42851 -216.18003,0 -391.4285628,-175.24849 -391.4285628,-391.42851 0,-216.18003 175.2485328,-391.42856 391.4285628,-391.42856 216.18002,0 391.42855,175.24853 391.42855,391.42856 z" />
  </g>
  <g
     inkscape:groupmode="layer"
     id="layer2"
     inkscape:label="Layer 2"
     style="display:inline">
    <g
       style="fill:#000000;stroke:#ffffff;stroke-opacity:1"
       transform="matrix(2.9974648,0,0,2.9974648,150.80235,285.47347)"
       id="g3792">
      <path
         style="opacity:0.556;fill:#000000;stroke:#000000;stroke-opacity:1;filter:url(#filter3802)"
         inkscape:connector-curvature="0"
         id="path3794"
         d="M 152.53697,-11.904533 H 34.166008 c -2.177002,0 -3.940003,1.763001 -3.940003,3.9380009 V 107.57948 c 0,2.179 1.763001,3.942 3.940003,3.942 H 152.53697 c 2.177,0 3.94,-1.764 3.94,-3.942 V -7.9655321 c 0,-2.1759999 -1.764,-3.9390009 -3.94,-3.9390009 z" />
      <g
         style="fill:#000000;stroke:#ffffff;stroke-opacity:1"
         id="g3796" />
    </g>
    <g
       id="g3"
       transform="matrix(2.9974648,0,0,2.9974648,201.23874,207.81889)"
       style="stroke:#ffffff;stroke-opacity:1">
      <path
         d="M 126.515,4.109 H 8.144 c -2.177,0 -3.94,1.763 -3.94,3.938 v 115.546 c 0,2.179 1.763,3.942 3.94,3.942 h 118.371 c 2.177,0 3.94,-1.764 3.94,-3.942 V 8.048 c 0,-2.176 -1.764,-3.939 -3.94,-3.939 z"
         id="path5"
         inkscape:connector-curvature="0"
         style="fill:#ffffff;stroke:#ffffff;stroke-opacity:1" />
      <g
         id="g7"
         style="stroke:#ffffff;stroke-opacity:1">
        <path
           d="m 70.479,71.845 -3.983,-3.093 c -1.213,-1.006 -2.872,-2.334 -2.872,-4.765 0,-2.441 1.659,-3.993 3.099,-5.43 4.64,-3.652 9.276,-7.539 9.276,-15.73 0,-8.423 -5.3,-12.854 -7.84,-14.956 h 6.849 l 7.189,-4.517 H 60.418 c -5.976,0 -14.588,1.414 -20.893,6.619 -4.752,4.1 -7.07,9.753 -7.07,14.842 0,8.639 6.633,17.396 18.346,17.396 1.106,0 2.316,-0.109 3.534,-0.222 -0.547,1.331 -1.1,2.439 -1.1,4.32 0,3.431 1.763,5.535 3.317,7.528 -4.977,0.342 -14.268,0.893 -21.117,5.103 -6.523,3.879 -8.508,9.525 -8.508,13.51 0,8.202 7.731,15.842 23.762,15.842 19.01,0 29.074,-10.519 29.074,-20.932 10e-4,-7.651 -4.419,-11.417 -9.284,-15.515 z M 56,59.107 c -9.51,0 -13.818,-12.294 -13.818,-19.712 0,-2.888 0.547,-5.87 2.428,-8.199 1.773,-2.218 4.861,-3.657 7.744,-3.657 9.168,0 13.923,12.404 13.923,20.382 0,1.996 -0.22,5.533 -2.762,8.09 -1.778,1.774 -4.753,3.096 -7.515,3.096 z m 0.109,44.543 c -11.826,0 -19.452,-5.657 -19.452,-13.523 0,-7.864 7.071,-10.524 9.504,-11.405 4.64,-1.561 10.611,-1.779 11.607,-1.779 1.105,0 1.658,0 2.538,0.111 8.407,5.983 12.056,8.965 12.056,14.629 0,6.859 -5.639,11.967 -16.253,11.967 z"
           id="path9"
           inkscape:connector-curvature="0"
           style="fill:#2196f3;fill-opacity:1;stroke:#2196f3;stroke-opacity:1" />
        <polygon
           points="98.393,58.938 98.393,47.863 92.923,47.863 92.923,58.938 81.866,58.938 81.866,64.469 92.923,64.469 92.923,75.612 98.393,75.612 98.393,64.469 109.506,64.469 109.506,58.938 "
           id="polygon11"
           style="fill:#2196f3;fill-opacity:1;stroke:#2196f3;stroke-opacity:1" />
      </g>
    </g>
  </g>
  <g
     inkscape:groupmode="layer"
     id="layer3"
     inkscape:label="Layer 3"
     style="display:inline" />
</svg>
