<?xml version="1.0" encoding="UTF-8" standalone="no"?>
<!-- Created with Inkscape (http://www.inkscape.org/) -->

<svg
   xmlns:dc="http://purl.org/dc/elements/1.1/"
   xmlns:cc="http://creativecommons.org/ns#"
   xmlns:rdf="http://www.w3.org/1999/02/22-rdf-syntax-ns#"
   xmlns:svg="http://www.w3.org/2000/svg"
   xmlns="http://www.w3.org/2000/svg"
   xmlns:sodipodi="http://sodipodi.sourceforge.net/DTD/sodipodi-0.dtd"
   xmlns:inkscape="http://www.inkscape.org/namespaces/inkscape"
   width="800"
   height="800"
   viewBox="0 0 800.00001 800.00001"
   id="svg5314"
   version="1.1"
   inkscape:version="0.91 r13725"
   enable-background="new"
   sodipodi:docname="joyboom.svg">
  <defs
     id="defs5316">
    <filter
       inkscape:collect="always"
       style="color-interpolation-filters:sRGB"
       id="filter4284"
       x="-0.04320567"
       width="1.0864113"
       y="-0.043194331"
       height="1.0863887">
      <feGaussianBlur
         inkscape:collect="always"
         stdDeviation="0.84591578"
         id="feGaussianBlur4286" />
    </filter>
  </defs>
  <sodipodi:namedview
     id="base"
     pagecolor="#ffffff"
     bordercolor="#666666"
     borderopacity="1.0"
     inkscape:pageopacity="0.0"
     inkscape:pageshadow="2"
     inkscape:zoom="0.35"
     inkscape:cx="54.911588"
     inkscape:cy="62.857143"
     inkscape:document-units="px"
     inkscape:current-layer="layer2"
     showgrid="false"
     units="px"
     inkscape:window-width="1366"
     inkscape:window-height="705"
     inkscape:window-x="-8"
     inkscape:window-y="-8"
     inkscape:window-maximized="1" />
  <metadata
     id="metadata5319">
    <rdf:RDF>
      <cc:Work
         rdf:about="">
        <dc:format>image/svg+xml</dc:format>
        <dc:type
           rdf:resource="http://purl.org/dc/dcmitype/StillImage" />
        <dc:title></dc:title>
      </cc:Work>
    </rdf:RDF>
  </metadata>
  <g
     inkscape:label="Layer 1"
     inkscape:groupmode="layer"
     id="layer1"
     transform="translate(0,-252.36216)">
    <circle
       style="opacity:1;fill:#2196f3;fill-opacity:1;stroke:#2196f3;stroke-width:1;stroke-opacity:1"
       id="path5866"
       cx="400.28571"
       cy="652.64789"
       r="391.42856" />
  </g>
  <g
     inkscape:groupmode="layer"
     id="layer2"
     inkscape:label="Layer 2"
     style="display:inline">
    <g
       style="opacity:0.556;fill:#000000;filter:url(#filter4284)"
       id="g3464"
       transform="matrix(10.847712,0,0,10.847712,174.21479,187.07599)">
      <g
         style="fill:#000000"
         id="g3466">
        <g
           style="fill:#000000"
           id="g3468">
          <path
             style="fill:#000000"
             id="path3470"
             d="m 34.658,22.375 c -0.089,0.09 -0.172,0.185 -0.261,0.273 -1.138,1.137 -2.32,2.035 -3.485,2.759 1.608,2.37 2.812,4.805 3.485,7.163 1.02,3.561 0.685,6.521 -0.917,8.124 -0.996,0.995 -2.455,1.502 -4.337,1.502 -4.782,0 -10.932,-3.18 -16.046,-8.296 C 5.088,25.891 3.087,16.729 6.3,13.514 c 0.996,-0.996 2.455,-1.5 4.337,-1.5 3.268,0 7.175,1.485 10.954,4.059 0.726,-1.161 1.621,-2.342 2.755,-3.476 0.091,-0.092 0.188,-0.177 0.279,-0.267 C 19.938,9.064 14.991,7.208 10.637,7.208 7.48,7.208 4.806,8.214 2.903,10.117 -2.812,15.832 0.174,27.77 9.7,37.297 c 6.074,6.077 13.344,9.704 19.443,9.704 3.156,0 5.831,-1.007 7.733,-2.909 2.914,-2.914 3.675,-7.475 2.14,-12.843 -0.84,-2.949 -2.343,-5.976 -4.358,-8.874 z"
             inkscape:connector-curvature="0" />
          <path
             style="fill:#000000"
             id="path3472"
             d="m 14.691,15.647 c -1.678,0 -2.717,0.688 -3.294,1.264 -0.894,0.894 -2.13,2.992 -0.363,7.008 1,2.272 2.788,4.758 5.035,7.006 3.66,3.662 7.769,5.937 10.721,5.937 1.678,0 2.717,-0.688 3.293,-1.263 0.894,-0.895 2.132,-2.993 0.365,-7.009 -0.322,-0.729 -0.732,-1.481 -1.205,-2.242 -3.588,1.782 -6.611,1.944 -6.794,1.954 -1.008,0.042 -1.992,-0.343 -2.704,-1.054 -0.711,-0.711 -1.095,-1.696 -1.051,-2.701 0.008,-0.185 0.167,-3.203 1.945,-6.786 -2.16,-1.339 -4.246,-2.114 -5.948,-2.114 z"
             inkscape:connector-curvature="0" />
          <path
             style="fill:#000000"
             id="path3474"
             d="M 46.961,7.708 C 46.858,7.302 46.555,6.975 46.151,6.851 L 41.579,5.416 40.144,0.841 c -0.126,-0.4 -0.453,-0.706 -0.859,-0.807 -0.408,-0.1 -0.84,0.021 -1.138,0.317 l -4.169,4.17 c -0.282,0.283 -0.407,0.688 -0.329,1.081 l 0.515,2.613 c -2.434,1.178 -5.508,3.468 -8.119,6.078 -4.655,4.656 -4.941,10.123 -4.951,10.354 -0.014,0.336 0.113,0.662 0.351,0.9 0.239,0.236 0.564,0.365 0.901,0.351 0.231,-0.01 5.698,-0.296 10.354,-4.951 2.608,-2.612 4.899,-5.688 6.076,-8.119 l 2.615,0.514 c 0.394,0.078 0.797,-0.046 1.08,-0.329 l 4.17,-4.17 c 0.297,-0.295 0.42,-0.725 0.32,-1.135 z"
             inkscape:connector-curvature="0" />
        </g>
      </g>
    </g>
    <g
       transform="matrix(10.847712,0,0,10.847712,144.21479,142.21885)"
       id="g3337"
       style="fill:#ffffff">
      <g
         id="Layer_1_106_"
         style="fill:#ffffff">
        <g
           id="g3340"
           style="fill:#ffffff">
          <path
             inkscape:connector-curvature="0"
             d="m 34.658,22.375 c -0.089,0.09 -0.172,0.185 -0.261,0.273 -1.138,1.137 -2.32,2.035 -3.485,2.759 1.608,2.37 2.812,4.805 3.485,7.163 1.02,3.561 0.685,6.521 -0.917,8.124 -0.996,0.995 -2.455,1.502 -4.337,1.502 -4.782,0 -10.932,-3.18 -16.046,-8.296 C 5.088,25.891 3.087,16.729 6.3,13.514 c 0.996,-0.996 2.455,-1.5 4.337,-1.5 3.268,0 7.175,1.485 10.954,4.059 0.726,-1.161 1.621,-2.342 2.755,-3.476 0.091,-0.092 0.188,-0.177 0.279,-0.267 C 19.938,9.064 14.991,7.208 10.637,7.208 7.48,7.208 4.806,8.214 2.903,10.117 -2.812,15.832 0.174,27.77 9.7,37.297 c 6.074,6.077 13.344,9.704 19.443,9.704 3.156,0 5.831,-1.007 7.733,-2.909 2.914,-2.914 3.675,-7.475 2.14,-12.843 -0.84,-2.949 -2.343,-5.976 -4.358,-8.874 z"
             id="path3342"
             style="fill:#ffffff" />
          <path
             inkscape:connector-curvature="0"
             d="m 14.691,15.647 c -1.678,0 -2.717,0.688 -3.294,1.264 -0.894,0.894 -2.13,2.992 -0.363,7.008 1,2.272 2.788,4.758 5.035,7.006 3.66,3.662 7.769,5.937 10.721,5.937 1.678,0 2.717,-0.688 3.293,-1.263 0.894,-0.895 2.132,-2.993 0.365,-7.009 -0.322,-0.729 -0.732,-1.481 -1.205,-2.242 -3.588,1.782 -6.611,1.944 -6.794,1.954 -1.008,0.042 -1.992,-0.343 -2.704,-1.054 -0.711,-0.711 -1.095,-1.696 -1.051,-2.701 0.008,-0.185 0.167,-3.203 1.945,-6.786 -2.16,-1.339 -4.246,-2.114 -5.948,-2.114 z"
             id="path3344"
             style="fill:#ffffff" />
          <path
             inkscape:connector-curvature="0"
             d="M 46.961,7.708 C 46.858,7.302 46.555,6.975 46.151,6.851 L 41.579,5.416 40.144,0.841 c -0.126,-0.4 -0.453,-0.706 -0.859,-0.807 -0.408,-0.1 -0.84,0.021 -1.138,0.317 l -4.169,4.17 c -0.282,0.283 -0.407,0.688 -0.329,1.081 l 0.515,2.613 c -2.434,1.178 -5.508,3.468 -8.119,6.078 -4.655,4.656 -4.941,10.123 -4.951,10.354 -0.014,0.336 0.113,0.662 0.351,0.9 0.239,0.236 0.564,0.365 0.901,0.351 0.231,-0.01 5.698,-0.296 10.354,-4.951 2.608,-2.612 4.899,-5.688 6.076,-8.119 l 2.615,0.514 c 0.394,0.078 0.797,-0.046 1.08,-0.329 l 4.17,-4.17 c 0.297,-0.295 0.42,-0.725 0.32,-1.135 z"
             id="path3346"
             style="fill:#ffffff" />
        </g>
      </g>
    </g>
  </g>
  <g
     inkscape:groupmode="layer"
     id="layer3"
     inkscape:label="Layer 3"
     style="display:inline" />
</svg>
