<?xml version="1.0" encoding="UTF-8" standalone="no"?>
<!-- Created with Inkscape (http://www.inkscape.org/) -->

<svg
   xmlns:dc="http://purl.org/dc/elements/1.1/"
   xmlns:cc="http://creativecommons.org/ns#"
   xmlns:rdf="http://www.w3.org/1999/02/22-rdf-syntax-ns#"
   xmlns:svg="http://www.w3.org/2000/svg"
   xmlns="http://www.w3.org/2000/svg"
   xmlns:sodipodi="http://sodipodi.sourceforge.net/DTD/sodipodi-0.dtd"
   xmlns:inkscape="http://www.inkscape.org/namespaces/inkscape"
   width="800"
   height="800"
   viewBox="0 0 800.00001 800.00001"
   id="svg5314"
   version="1.1"
   inkscape:version="0.48.4 r9939"
   enable-background="new"
   sodipodi:docname="codecrush.svg">
  <defs
     id="defs5316">
    <filter
       inkscape:collect="always"
       style="color-interpolation-filters:sRGB"
       id="filter7088"
       x="-0.042301534"
       width="1.0846031"
       y="-0.044137461"
       height="1.0882749">
      <feGaussianBlur
         inkscape:collect="always"
         stdDeviation="0.42301825"
         id="feGaussianBlur7090" />
    </filter>
    <filter
       inkscape:collect="always"
       id="filter3851">
      <feGaussianBlur
         inkscape:collect="always"
         stdDeviation="0.84587127"
         id="feGaussianBlur3853" />
    </filter>
  </defs>
  <sodipodi:namedview
     id="base"
     pagecolor="#ffffff"
     bordercolor="#666666"
     borderopacity="1.0"
     inkscape:pageopacity="0.0"
     inkscape:pageshadow="2"
     inkscape:zoom="0.67625"
     inkscape:cx="400"
     inkscape:cy="400"
     inkscape:document-units="px"
     inkscape:current-layer="g3"
     showgrid="false"
     units="px"
     inkscape:window-width="1366"
     inkscape:window-height="713"
     inkscape:window-x="0"
     inkscape:window-y="30"
     inkscape:window-maximized="1" />
  <metadata
     id="metadata5319">
    <rdf:RDF>
      <cc:Work
         rdf:about="">
        <dc:format>image/svg+xml</dc:format>
        <dc:type
           rdf:resource="http://purl.org/dc/dcmitype/StillImage" />
        <dc:title></dc:title>
      </cc:Work>
    </rdf:RDF>
  </metadata>
  <g
     inkscape:label="Layer 1"
     inkscape:groupmode="layer"
     id="layer1"
     transform="translate(0,-252.36216)">
    <circle
       style="opacity:1;fill:#2196f3;fill-opacity:1;stroke:#2196f3;stroke-width:1;stroke-opacity:1"
       id="path5866"
       cx="400.28571"
       cy="652.64789"
       r="391.42856"
       d="m 791.71426,652.64789 c 0,216.18002 -175.24853,391.42851 -391.42855,391.42851 -216.18003,0 -391.4285628,-175.24849 -391.4285628,-391.42851 0,-216.18003 175.2485328,-391.42856 391.4285628,-391.42856 216.18002,0 391.42855,175.24853 391.42855,391.42856 z" />
  </g>
  <g
     inkscape:groupmode="layer"
     id="layer2"
     inkscape:label="Layer 2"
     style="display:inline">
    <g
       transform="matrix(10.364492,0,0,10.364492,210.72173,110.72017)"
       id="g3"
       style="fill:#ffd200;fill-opacity:1">
      <g
         transform="translate(-1.2405003,7.1673165)"
         style="opacity:0.556;fill:#000000;fill-opacity:1;filter:url(#filter3851)"
         id="g3067">
        <g
           style="fill:#000000;fill-opacity:1"
           id="g3069">
          <path
             style="fill:#000000;fill-opacity:1"
             id="path3071"
             d="M 27.764,27.771 H 3.204 V 4.278 h 24.56 v 8.981 l 2.137,0.456 V 3.982 c 0.637,-0.37 1.067,-1.051 1.067,-1.839 0,-1.179 -0.956,-2.136 -2.136,-2.136 H 2.136 C 0.956,0.007 0,0.964 0,2.143 0,2.932 0.432,3.612 1.068,3.982 v 24.857 c 0,0.589 0.478,1.068 1.067,1.068 h 6.581 l -3.84,14.398 c -0.303,1.139 0.374,2.311 1.514,2.615 0.185,0.049 0.37,0.073 0.552,0.073 0.943,0 1.808,-0.631 2.063,-1.586 l 4.134,-15.5 h 4.69 l 4.134,15.5 c 0.255,0.955 1.118,1.586 2.062,1.586 0.183,0 0.367,-0.023 0.553,-0.073 1.14,-0.304 1.816,-1.476 1.514,-2.614 l -3.84,-14.398 h 6.581 c 0.59,0 1.067,-0.479 1.067,-1.068 v -6.387 l -2.137,-0.457 v 5.775 z"
             inkscape:connector-curvature="0" />
          <path
             style="fill:#000000;fill-opacity:1"
             id="path3073"
             d="m 36.848,15.5 c 2.092,0 3.793,-1.698 3.793,-3.791 0,-2.095 -1.701,-3.792 -3.793,-3.792 -2.091,0 -3.791,1.696 -3.791,3.792 0,2.093 1.7,3.791 3.791,3.791 z"
             inkscape:connector-curvature="0" />
          <path
             style="fill:#000000;fill-opacity:1"
             id="path3075"
             d="M 46.855,28.075 42.933,17.923 C 42.618,17.1 41.825,16.557 40.943,16.557 h -2.084 c -0.586,0 -1.098,0.256 -1.48,0.641 l 0.994,7.299 -1.525,1.293 -1.523,-1.293 0.994,-7.299 C 35.934,16.813 35.423,16.557 34.837,16.557 H 32.98 L 20.736,13.941 c -1.153,-0.246 -2.288,0.49 -2.535,1.643 -0.246,1.154 0.489,2.289 1.643,2.535 l 12.463,2.662 c 0.129,0.028 0.262,0.043 0.394,0.046 v 9.879 l -0.817,14.025 c -0.066,1.177 0.831,2.187 2.01,2.256 0.041,0.003 0.084,0.004 0.125,0.004 1.123,0 2.063,-0.876 2.131,-2.012 l 0.701,-12.029 0.7,12.029 c 0.066,1.136 1.009,2.012 2.132,2.012 0.041,0 0.084,-10e-4 0.125,-0.004 1.178,-0.069 2.076,-1.079 2.008,-2.256 L 41,30.706 v -5.948 l 1.876,4.856 c 0.425,1.102 1.664,1.646 2.763,1.223 1.095,-0.425 1.642,-1.661 1.216,-2.762 z"
             inkscape:connector-curvature="0" />
          <path
             style="fill:#000000;fill-opacity:1"
             id="path3077"
             d="m 4.806,15.225 v 9.077 c 0,0.59 0.478,1.068 1.067,1.068 0.591,0 1.068,-0.479 1.068,-1.068 v -9.077 c 0,-0.589 -0.478,-1.068 -1.068,-1.068 -0.59,0 -1.067,0.478 -1.067,1.068 z"
             inkscape:connector-curvature="0" />
          <path
             style="fill:#000000;fill-opacity:1"
             id="path3079"
             d="m 9.61,7.749 v 16.552 c 0,0.591 0.478,1.068 1.068,1.068 0.59,0 1.067,-0.478 1.067,-1.068 V 7.749 c 0,-0.59 -0.478,-1.068 -1.067,-1.068 -0.59,0 -1.068,0.478 -1.068,1.068 z"
             inkscape:connector-curvature="0" />
          <path
             style="fill:#000000;fill-opacity:1"
             id="path3081"
             d="m 14.416,12.019 v 12.282 c 0,0.591 0.478,1.068 1.067,1.068 0.591,0 1.068,-0.478 1.068,-1.068 V 12.019 c 0,-0.59 -0.478,-1.068 -1.068,-1.068 -0.589,0 -1.067,0.478 -1.067,1.068 z"
             inkscape:connector-curvature="0" />
        </g>
      </g>
      <g
         id="Layer_1_95_"
         style="fill:#ffffff;fill-opacity:1"
         transform="translate(-4.134997,4.9619964)">
        <g
           id="g6"
           style="fill:#ffffff;fill-opacity:1">
          <path
             inkscape:connector-curvature="0"
             d="M 27.764,27.771 H 3.204 V 4.278 h 24.56 v 8.981 l 2.137,0.456 V 3.982 c 0.637,-0.37 1.067,-1.051 1.067,-1.839 0,-1.179 -0.956,-2.136 -2.136,-2.136 H 2.136 C 0.956,0.007 0,0.964 0,2.143 0,2.932 0.432,3.612 1.068,3.982 v 24.857 c 0,0.589 0.478,1.068 1.067,1.068 h 6.581 l -3.84,14.398 c -0.303,1.139 0.374,2.311 1.514,2.615 0.185,0.049 0.37,0.073 0.552,0.073 0.943,0 1.808,-0.631 2.063,-1.586 l 4.134,-15.5 h 4.69 l 4.134,15.5 c 0.255,0.955 1.118,1.586 2.062,1.586 0.183,0 0.367,-0.023 0.553,-0.073 1.14,-0.304 1.816,-1.476 1.514,-2.614 l -3.84,-14.398 h 6.581 c 0.59,0 1.067,-0.479 1.067,-1.068 v -6.387 l -2.137,-0.457 v 5.775 z"
             id="path8"
             style="fill:#ffffff;fill-opacity:1" />
          <path
             inkscape:connector-curvature="0"
             d="m 36.848,15.5 c 2.092,0 3.793,-1.698 3.793,-3.791 0,-2.095 -1.701,-3.792 -3.793,-3.792 -2.091,0 -3.791,1.696 -3.791,3.792 0,2.093 1.7,3.791 3.791,3.791 z"
             id="path10"
             style="fill:#ffffff;fill-opacity:1" />
          <path
             inkscape:connector-curvature="0"
             d="M 46.855,28.075 42.933,17.923 C 42.618,17.1 41.825,16.557 40.943,16.557 h -2.084 c -0.586,0 -1.098,0.256 -1.48,0.641 l 0.994,7.299 -1.525,1.293 -1.523,-1.293 0.994,-7.299 C 35.934,16.813 35.423,16.557 34.837,16.557 H 32.98 L 20.736,13.941 c -1.153,-0.246 -2.288,0.49 -2.535,1.643 -0.246,1.154 0.489,2.289 1.643,2.535 l 12.463,2.662 c 0.129,0.028 0.262,0.043 0.394,0.046 v 9.879 l -0.817,14.025 c -0.066,1.177 0.831,2.187 2.01,2.256 0.041,0.003 0.084,0.004 0.125,0.004 1.123,0 2.063,-0.876 2.131,-2.012 l 0.701,-12.029 0.7,12.029 c 0.066,1.136 1.009,2.012 2.132,2.012 0.041,0 0.084,-10e-4 0.125,-0.004 1.178,-0.069 2.076,-1.079 2.008,-2.256 L 41,30.706 v -5.948 l 1.876,4.856 c 0.425,1.102 1.664,1.646 2.763,1.223 1.095,-0.425 1.642,-1.661 1.216,-2.762 z"
             id="path12"
             style="fill:#ffffff;fill-opacity:1" />
          <path
             inkscape:connector-curvature="0"
             d="m 4.806,15.225 v 9.077 c 0,0.59 0.478,1.068 1.067,1.068 0.591,0 1.068,-0.479 1.068,-1.068 v -9.077 c 0,-0.589 -0.478,-1.068 -1.068,-1.068 -0.59,0 -1.067,0.478 -1.067,1.068 z"
             id="path14"
             style="fill:#ffffff;fill-opacity:1" />
          <path
             inkscape:connector-curvature="0"
             d="m 9.61,7.749 v 16.552 c 0,0.591 0.478,1.068 1.068,1.068 0.59,0 1.067,-0.478 1.067,-1.068 V 7.749 c 0,-0.59 -0.478,-1.068 -1.067,-1.068 -0.59,0 -1.068,0.478 -1.068,1.068 z"
             id="path16"
             style="fill:#ffffff;fill-opacity:1" />
          <path
             inkscape:connector-curvature="0"
             d="m 14.416,12.019 v 12.282 c 0,0.591 0.478,1.068 1.067,1.068 0.591,0 1.068,-0.478 1.068,-1.068 V 12.019 c 0,-0.59 -0.478,-1.068 -1.068,-1.068 -0.589,0 -1.067,0.478 -1.067,1.068 z"
             id="path18"
             style="fill:#ffffff;fill-opacity:1" />
        </g>
      </g>
    </g>
  </g>
  <g
     inkscape:groupmode="layer"
     id="layer3"
     inkscape:label="Layer 3"
     style="display:inline" />
</svg>
