<?xml version="1.0" encoding="UTF-8" standalone="no"?>
<!-- Created with Inkscape (http://www.inkscape.org/) -->

<svg
   xmlns:dc="http://purl.org/dc/elements/1.1/"
   xmlns:cc="http://creativecommons.org/ns#"
   xmlns:rdf="http://www.w3.org/1999/02/22-rdf-syntax-ns#"
   xmlns:svg="http://www.w3.org/2000/svg"
   xmlns="http://www.w3.org/2000/svg"
   xmlns:sodipodi="http://sodipodi.sourceforge.net/DTD/sodipodi-0.dtd"
   xmlns:inkscape="http://www.inkscape.org/namespaces/inkscape"
   width="900"
   height="900"
   viewBox="0 0 900.00001 900.00001"
   id="svg4156"
   version="1.1"
   inkscape:version="0.91 r13725"
   sodipodi:docname="presentation.svg">
  <defs
     id="defs4158">
    <filter
       style="color-interpolation-filters:sRGB;"
       inkscape:label="Drop Shadow"
       id="filter4946">
      <feFlood
         flood-opacity="0.560784"
         flood-color="rgb(0,0,0)"
         result="flood"
         id="feFlood4948" />
      <feComposite
         in="flood"
         in2="SourceGraphic"
         operator="in"
         result="composite1"
         id="feComposite4950" />
      <feGaussianBlur
         in="composite1"
         stdDeviation="3"
         result="blur"
         id="feGaussianBlur4952" />
      <feOffset
         dx="6"
         dy="6"
         result="offset"
         id="feOffset4954" />
      <feComposite
         in="SourceGraphic"
         in2="offset"
         operator="over"
         result="composite2"
         id="feComposite4956" />
    </filter>
  </defs>
  <sodipodi:namedview
     id="base"
     pagecolor="#ffffff"
     bordercolor="#666666"
     borderopacity="1.0"
     inkscape:pageopacity="0.0"
     inkscape:pageshadow="2"
     inkscape:zoom="0.35"
     inkscape:cx="197.85714"
     inkscape:cy="445.71429"
     inkscape:document-units="px"
     inkscape:current-layer="layer2"
     showgrid="false"
     units="px"
     inkscape:window-width="1366"
     inkscape:window-height="694"
     inkscape:window-x="0"
     inkscape:window-y="32"
     inkscape:window-maximized="1" />
  <metadata
     id="metadata4161">
    <rdf:RDF>
      <cc:Work
         rdf:about="">
        <dc:format>image/svg+xml</dc:format>
        <dc:type
           rdf:resource="http://purl.org/dc/dcmitype/StillImage" />
        <dc:title />
      </cc:Work>
    </rdf:RDF>
  </metadata>
  <g
     inkscape:label="Layer 1"
     inkscape:groupmode="layer"
     id="layer1"
     transform="translate(0,-152.36216)">
    <circle
       style="opacity:1;fill:#2196f3;fill-opacity:1;stroke:#2196f3;stroke-width:1.00000012;stroke-opacity:1"
       id="path4704"
       cx="452.00003"
       cy="604.07642"
       r="445.71429" />
  </g>
  <g
     inkscape:groupmode="layer"
     id="layer2"
     inkscape:label="Layer 2">
    <g
       transform="matrix(10.242875,0,0,10.242875,225.00829,210.72101)"
       id="g3"
       style="fill:#ffffff;fill-opacity:1;filter:url(#filter4946)">
      <g
         id="Layer_1_95_"
         style="fill:#ffffff;fill-opacity:1">
        <g
           id="g6"
           style="fill:#ffffff;fill-opacity:1">
          <path
             inkscape:connector-curvature="0"
             d="m 27.764,27.771 -24.56,0 0,-23.493 24.56,0 0,8.981 2.137,0.456 0,-9.733 c 0.637,-0.37 1.067,-1.051 1.067,-1.839 0,-1.179 -0.956,-2.136 -2.136,-2.136 l -26.696,0 C 0.956,0.007 0,0.964 0,2.143 0,2.932 0.432,3.612 1.068,3.982 l 0,24.857 c 0,0.589 0.478,1.068 1.067,1.068 l 6.581,0 -3.84,14.398 c -0.303,1.139 0.374,2.311 1.514,2.615 0.185,0.049 0.37,0.073 0.552,0.073 0.943,0 1.808,-0.631 2.063,-1.586 l 4.134,-15.5 4.69,0 4.134,15.5 c 0.255,0.955 1.118,1.586 2.062,1.586 0.183,0 0.367,-0.023 0.553,-0.073 1.14,-0.304 1.816,-1.476 1.514,-2.614 l -3.84,-14.398 6.581,0 c 0.59,0 1.067,-0.479 1.067,-1.068 l 0,-6.387 -2.137,-0.457 0,5.775 z"
             id="path8"
             style="fill:#ffffff;fill-opacity:1" />
          <path
             inkscape:connector-curvature="0"
             d="m 36.848,15.5 c 2.092,0 3.793,-1.698 3.793,-3.791 0,-2.095 -1.701,-3.792 -3.793,-3.792 -2.091,0 -3.791,1.696 -3.791,3.792 0,2.093 1.7,3.791 3.791,3.791 z"
             id="path10"
             style="fill:#ffffff;fill-opacity:1" />
          <path
             inkscape:connector-curvature="0"
             d="M 46.855,28.075 42.933,17.923 C 42.618,17.1 41.825,16.557 40.943,16.557 l -2.084,0 c -0.586,0 -1.098,0.256 -1.48,0.641 l 0.994,7.299 -1.525,1.293 -1.523,-1.293 0.994,-7.299 c -0.385,-0.385 -0.896,-0.641 -1.482,-0.641 l -1.857,0 -12.244,-2.616 c -1.153,-0.246 -2.288,0.49 -2.535,1.643 -0.246,1.154 0.489,2.289 1.643,2.535 l 12.463,2.662 c 0.129,0.028 0.262,0.043 0.394,0.046 l 0,9.879 -0.817,14.025 c -0.066,1.177 0.831,2.187 2.01,2.256 0.041,0.003 0.084,0.004 0.125,0.004 1.123,0 2.063,-0.876 2.131,-2.012 l 0.701,-12.029 0.7,12.029 c 0.066,1.136 1.009,2.012 2.132,2.012 0.041,0 0.084,-10e-4 0.125,-0.004 1.178,-0.069 2.076,-1.079 2.008,-2.256 L 41,30.706 l 0,-5.948 1.876,4.856 c 0.425,1.102 1.664,1.646 2.763,1.223 1.095,-0.425 1.642,-1.661 1.216,-2.762 z"
             id="path12"
             style="fill:#ffffff;fill-opacity:1" />
          <path
             inkscape:connector-curvature="0"
             d="m 4.806,15.225 0,9.077 c 0,0.59 0.478,1.068 1.067,1.068 0.591,0 1.068,-0.479 1.068,-1.068 l 0,-9.077 c 0,-0.589 -0.478,-1.068 -1.068,-1.068 -0.59,0 -1.067,0.478 -1.067,1.068 z"
             id="path14"
             style="fill:#ffffff;fill-opacity:1" />
          <path
             inkscape:connector-curvature="0"
             d="m 9.61,7.749 0,16.552 c 0,0.591 0.478,1.068 1.068,1.068 0.59,0 1.067,-0.478 1.067,-1.068 l 0,-16.552 c 0,-0.59 -0.478,-1.068 -1.067,-1.068 -0.59,0 -1.068,0.478 -1.068,1.068 z"
             id="path16"
             style="fill:#ffffff;fill-opacity:1" />
          <path
             inkscape:connector-curvature="0"
             d="m 14.416,12.019 0,12.282 c 0,0.591 0.478,1.068 1.067,1.068 0.591,0 1.068,-0.478 1.068,-1.068 l 0,-12.282 c 0,-0.59 -0.478,-1.068 -1.068,-1.068 -0.589,0 -1.067,0.478 -1.067,1.068 z"
             id="path18"
             style="fill:#ffffff;fill-opacity:1" />
        </g>
      </g>
    </g>
  </g>
</svg>
