<?xml version="1.0" encoding="UTF-8" standalone="no"?>
<!-- Created with Inkscape (http://www.inkscape.org/) -->

<svg
   xmlns:dc="http://purl.org/dc/elements/1.1/"
   xmlns:cc="http://creativecommons.org/ns#"
   xmlns:rdf="http://www.w3.org/1999/02/22-rdf-syntax-ns#"
   xmlns:svg="http://www.w3.org/2000/svg"
   xmlns="http://www.w3.org/2000/svg"
   xmlns:sodipodi="http://sodipodi.sourceforge.net/DTD/sodipodi-0.dtd"
   xmlns:inkscape="http://www.inkscape.org/namespaces/inkscape"
   width="800"
   height="800"
   viewBox="0 0 800.00001 800.00001"
   id="svg5314"
   version="1.1"
   inkscape:version="0.91 r13725"
   enable-background="new"
   sodipodi:docname="quizitto.svg">
  <defs
     id="defs5316">
    <filter
       inkscape:collect="always"
       style="color-interpolation-filters:sRGB"
       id="filter7554"
       x="-0.053285677"
       width="1.1065714"
       y="-0.036324634"
       height="1.0726493">
      <feGaussianBlur
         inkscape:collect="always"
         stdDeviation="5.8366573"
         id="feGaussianBlur7556" />
    </filter>
  </defs>
  <sodipodi:namedview
     id="base"
     pagecolor="#ffffff"
     bordercolor="#666666"
     borderopacity="1.0"
     inkscape:pageopacity="0.0"
     inkscape:pageshadow="2"
     inkscape:zoom="0.35"
     inkscape:cx="457.85714"
     inkscape:cy="291.42857"
     inkscape:document-units="px"
     inkscape:current-layer="layer1"
     showgrid="false"
     units="px"
     inkscape:window-width="1366"
     inkscape:window-height="694"
     inkscape:window-x="0"
     inkscape:window-y="32"
     inkscape:window-maximized="1" />
  <metadata
     id="metadata5319">
    <rdf:RDF>
      <cc:Work
         rdf:about="">
        <dc:format>image/svg+xml</dc:format>
        <dc:type
           rdf:resource="http://purl.org/dc/dcmitype/StillImage" />
        <dc:title></dc:title>
      </cc:Work>
    </rdf:RDF>
  </metadata>
  <g
     inkscape:label="Layer 1"
     inkscape:groupmode="layer"
     id="layer1"
     transform="translate(0,-252.36216)">
    <circle
       style="opacity:1;fill:#2196f3;fill-opacity:1;stroke:#2196f3;stroke-width:1;stroke-opacity:1"
       id="path5866"
       cx="400.28571"
       cy="652.64789"
       r="391.42856" />
    <g
       style="opacity:0.556;fill:#000000;fill-opacity:1;filter:url(#filter7554)"
       id="g7525"
       transform="matrix(1.4297202,0,0,1.4297202,156.32637,380.40281)">
      <g
         style="fill:#000000;fill-opacity:1"
         id="g7527">
        <g
           style="fill:#000000;fill-opacity:1"
           id="g7529">
          <path
             style="fill:#000000;fill-opacity:1"
             id="path7531"
             d="M 236.884,76.665 C 225.234,66.12 209.457,60.312 192.461,60.312 c -16.997,0 -32.774,5.808 -44.424,16.353 -12.131,10.98 -18.813,26.287 -18.813,43.099 0,26.265 10.886,36.869 19.632,45.391 l 1.172,1.137 c 5.081,4.915 12.118,8.804 9.763,16.071 -0.771,2.378 -2.652,4.181 -2.652,6.689 0,5.098 1.463,11.603 13.099,15.511 1.139,0.366 1.471,1.234 1.77,1.68 2.557,3.817 8.181,7.648 20.452,7.648 12.134,0 17.763,-3.849 20.362,-7.65 0.297,-0.435 0.68,-1.312 1.69,-1.616 12.322,-4.139 13.268,-11.391 13.268,-15.572 0,-2.485 -1.892,-4.34 -2.659,-6.697 -2.4,-7.369 4.658,-11.251 9.739,-16.143 l 1.242,-1.2 c 8.73,-8.476 19.594,-19.023 19.594,-45.248 0.001,-16.812 -6.681,-32.119 -18.812,-43.1 z m -44.423,-0.209 c 27.288,0 47.093,18.214 47.093,43.308 0,19.398 -6.81,26.011 -14.697,33.669 -7.832,7.603 -15.485,16.187 -16.168,30.2 -0.025,0.523 -0.021,1.297 -1.228,2.132 -1.516,0.804 -4.902,2.099 -15,2.099 -10.283,0 -13.523,-1.293 -14.904,-2.022 -1.304,-0.911 -1.329,-1.898 -1.362,-2.539 -0.761,-14.789 -9.217,-23.028 -16.074,-29.709 -7.917,-7.714 -14.754,-14.377 -14.754,-33.829 -10e-4,-25.095 19.805,-43.309 47.094,-43.309 z"
             inkscape:connector-curvature="0" />
          <path
             style="fill:#000000;fill-opacity:1"
             id="path7533"
             d="M 323.816,378.784 278.269,258.395 c -1.156,-3.056 -10.955,-23.224 -29.148,-23.224 -5.752,0 -105.555,0.15 -108.82,0.15 0,0 -0.532,0 -3.771,0 -20.364,0 -27.987,20.018 -29.142,23.073 l -45.55,120.389 c -1.157,3.054 -0.485,6.849 5.924,6.849 0,0 24.585,0 33.612,0 6.125,0 8.032,-5.36 8.032,-5.36 l 21.716,-58.268 c 0,0 2.73,-7.461 2.73,0.632 0,11.123 0.144,40.841 0.217,55.12 0.024,4.815 0.771,7.876 6.458,7.876 29.456,0 83.173,0 110.898,0 7.874,0 6.915,-4.099 6.897,-10.281 -0.043,-15.072 -0.117,-42.527 -0.117,-53.152 0,-5.468 1.939,-1.738 1.939,-1.738 l 20.395,58.901 c 0,0 1.945,6.271 9.164,6.271 7.672,0 27.854,0 27.854,0 6.622,0 7.417,-3.795 6.259,-6.849 z m -104.181,-34.526 -22.92,21.078 c -2.145,1.972 -5.655,1.972 -7.798,0 l -22.921,-21.078 c -2.146,-1.971 -3.41,-5.918 -2.814,-8.767 l 11.952,-57.076 c 0.181,-0.852 0.72,-3.435 0.673,-4.021 -0.234,-3.01 -0.939,-12.037 -0.939,-12.037 -0.229,-2.904 1.97,-5.281 4.883,-5.281 l 26.129,0 c 2.912,0 5.11,2.377 4.883,5.281 0,0 -0.705,9.027 -0.938,12.037 -0.047,0.584 0.494,3.17 0.674,4.021 l 11.949,57.076 c 0.598,2.849 -0.667,6.796 -2.813,8.767 z"
             inkscape:connector-curvature="0" />
          <g
             style="fill:#000000;fill-opacity:1"
             id="g7535">
            <path
               style="fill:#000000;fill-opacity:1"
               id="path7537"
               d="m 198.694,140.636 c 0,3.443 -2.791,6.233 -6.233,6.233 l 0,0 c -3.442,0 -6.233,-2.79 -6.233,-6.233 l -2.934,-39.602 c 0,-3.442 3.301,-6.233 9.168,-6.233 l 0,0 c 6.112,0 9.167,2.791 9.167,6.233 l -2.935,39.602 z"
               inkscape:connector-curvature="0" />
            <circle
               style="fill:#000000;fill-opacity:1"
               id="circle7539"
               r="6.967"
               cy="162.64301"
               cx="192.461" />
          </g>
          <g
             style="fill:#000000;fill-opacity:1"
             id="g7541">
            <path
               style="fill:#000000;fill-opacity:1"
               id="path7543"
               d="m 192.461,40.203 c -4.971,0 -9,-4.029 -9,-9 l 0,-22.203 c 0,-4.971 4.029,-9 9,-9 4.97,0 8.999,4.029 8.999,9 l 0,22.203 c 0,4.971 -4.029,9 -8.999,9 z"
               inkscape:connector-curvature="0" />
          </g>
          <g
             style="fill:#000000;fill-opacity:1"
             id="g7545">
            <path
               style="fill:#000000;fill-opacity:1"
               id="path7547"
               d="m 265.158,70.222 c -3.037,0 -5.998,-1.535 -7.693,-4.317 -2.588,-4.244 -1.245,-9.781 3,-12.368 L 280.477,41.34 c 4.244,-2.589 9.781,-1.243 12.369,3.001 2.586,4.244 1.244,9.781 -3.002,12.368 l -20.012,12.197 c -1.461,0.891 -3.078,1.316 -4.674,1.316 z"
               inkscape:connector-curvature="0" />
          </g>
          <g
             style="fill:#000000;fill-opacity:1"
             id="g7549">
            <path
               style="fill:#000000;fill-opacity:1"
               id="path7551"
               d="m 119.765,70.222 c -1.596,0 -3.212,-0.424 -4.675,-1.316 L 95.077,56.709 c -4.244,-2.587 -5.588,-8.125 -3.001,-12.369 2.586,-4.246 8.123,-5.591 12.369,-3.002 l 20.013,12.197 c 4.244,2.587 5.588,8.125 3.001,12.369 -1.696,2.782 -4.659,4.318 -7.694,4.318 z"
               inkscape:connector-curvature="0" />
          </g>
        </g>
      </g>
    </g>
    <g
       transform="matrix(1.4297202,0,0,1.4297202,123.75494,355.54567)"
       id="g3"
       style="fill:#ffffff;fill-opacity:1">
      <g
         id="Layer_5_97_"
         style="fill:#ffffff;fill-opacity:1">
        <g
           id="g6"
           style="fill:#ffffff;fill-opacity:1">
          <path
             inkscape:connector-curvature="0"
             d="M 236.884,76.665 C 225.234,66.12 209.457,60.312 192.461,60.312 c -16.997,0 -32.774,5.808 -44.424,16.353 -12.131,10.98 -18.813,26.287 -18.813,43.099 0,26.265 10.886,36.869 19.632,45.391 l 1.172,1.137 c 5.081,4.915 12.118,8.804 9.763,16.071 -0.771,2.378 -2.652,4.181 -2.652,6.689 0,5.098 1.463,11.603 13.099,15.511 1.139,0.366 1.471,1.234 1.77,1.68 2.557,3.817 8.181,7.648 20.452,7.648 12.134,0 17.763,-3.849 20.362,-7.65 0.297,-0.435 0.68,-1.312 1.69,-1.616 12.322,-4.139 13.268,-11.391 13.268,-15.572 0,-2.485 -1.892,-4.34 -2.659,-6.697 -2.4,-7.369 4.658,-11.251 9.739,-16.143 l 1.242,-1.2 c 8.73,-8.476 19.594,-19.023 19.594,-45.248 0.001,-16.812 -6.681,-32.119 -18.812,-43.1 z m -44.423,-0.209 c 27.288,0 47.093,18.214 47.093,43.308 0,19.398 -6.81,26.011 -14.697,33.669 -7.832,7.603 -15.485,16.187 -16.168,30.2 -0.025,0.523 -0.021,1.297 -1.228,2.132 -1.516,0.804 -4.902,2.099 -15,2.099 -10.283,0 -13.523,-1.293 -14.904,-2.022 -1.304,-0.911 -1.329,-1.898 -1.362,-2.539 -0.761,-14.789 -9.217,-23.028 -16.074,-29.709 -7.917,-7.714 -14.754,-14.377 -14.754,-33.829 -10e-4,-25.095 19.805,-43.309 47.094,-43.309 z"
             id="path8"
             style="fill:#ffffff;fill-opacity:1" />
          <path
             inkscape:connector-curvature="0"
             d="M 323.816,378.784 278.269,258.395 c -1.156,-3.056 -10.955,-23.224 -29.148,-23.224 -5.752,0 -105.555,0.15 -108.82,0.15 0,0 -0.532,0 -3.771,0 -20.364,0 -27.987,20.018 -29.142,23.073 l -45.55,120.389 c -1.157,3.054 -0.485,6.849 5.924,6.849 0,0 24.585,0 33.612,0 6.125,0 8.032,-5.36 8.032,-5.36 l 21.716,-58.268 c 0,0 2.73,-7.461 2.73,0.632 0,11.123 0.144,40.841 0.217,55.12 0.024,4.815 0.771,7.876 6.458,7.876 29.456,0 83.173,0 110.898,0 7.874,0 6.915,-4.099 6.897,-10.281 -0.043,-15.072 -0.117,-42.527 -0.117,-53.152 0,-5.468 1.939,-1.738 1.939,-1.738 l 20.395,58.901 c 0,0 1.945,6.271 9.164,6.271 7.672,0 27.854,0 27.854,0 6.622,0 7.417,-3.795 6.259,-6.849 z m -104.181,-34.526 -22.92,21.078 c -2.145,1.972 -5.655,1.972 -7.798,0 l -22.921,-21.078 c -2.146,-1.971 -3.41,-5.918 -2.814,-8.767 l 11.952,-57.076 c 0.181,-0.852 0.72,-3.435 0.673,-4.021 -0.234,-3.01 -0.939,-12.037 -0.939,-12.037 -0.229,-2.904 1.97,-5.281 4.883,-5.281 l 26.129,0 c 2.912,0 5.11,2.377 4.883,5.281 0,0 -0.705,9.027 -0.938,12.037 -0.047,0.584 0.494,3.17 0.674,4.021 l 11.949,57.076 c 0.598,2.849 -0.667,6.796 -2.813,8.767 z"
             id="path10"
             style="fill:#ffffff;fill-opacity:1" />
          <g
             id="g12"
             style="fill:#ffffff;fill-opacity:1">
            <path
               inkscape:connector-curvature="0"
               d="m 198.694,140.636 c 0,3.443 -2.791,6.233 -6.233,6.233 l 0,0 c -3.442,0 -6.233,-2.79 -6.233,-6.233 l -2.934,-39.602 c 0,-3.442 3.301,-6.233 9.168,-6.233 l 0,0 c 6.112,0 9.167,2.791 9.167,6.233 l -2.935,39.602 z"
               id="path14"
               style="fill:#ffffff;fill-opacity:1" />
            <circle
               cx="192.461"
               cy="162.64301"
               r="6.967"
               id="circle16"
               style="fill:#ffffff;fill-opacity:1" />
          </g>
          <g
             id="g18"
             style="fill:#ffffff;fill-opacity:1">
            <path
               inkscape:connector-curvature="0"
               d="m 192.461,40.203 c -4.971,0 -9,-4.029 -9,-9 l 0,-22.203 c 0,-4.971 4.029,-9 9,-9 4.97,0 8.999,4.029 8.999,9 l 0,22.203 c 0,4.971 -4.029,9 -8.999,9 z"
               id="path20"
               style="fill:#ffffff;fill-opacity:1" />
          </g>
          <g
             id="g22"
             style="fill:#ffffff;fill-opacity:1">
            <path
               inkscape:connector-curvature="0"
               d="m 265.158,70.222 c -3.037,0 -5.998,-1.535 -7.693,-4.317 -2.588,-4.244 -1.245,-9.781 3,-12.368 L 280.477,41.34 c 4.244,-2.589 9.781,-1.243 12.369,3.001 2.586,4.244 1.244,9.781 -3.002,12.368 l -20.012,12.197 c -1.461,0.891 -3.078,1.316 -4.674,1.316 z"
               id="path24"
               style="fill:#ffffff;fill-opacity:1" />
          </g>
          <g
             id="g26"
             style="fill:#ffffff;fill-opacity:1">
            <path
               inkscape:connector-curvature="0"
               d="m 119.765,70.222 c -1.596,0 -3.212,-0.424 -4.675,-1.316 L 95.077,56.709 c -4.244,-2.587 -5.588,-8.125 -3.001,-12.369 2.586,-4.246 8.123,-5.591 12.369,-3.002 l 20.013,12.197 c 4.244,2.587 5.588,8.125 3.001,12.369 -1.696,2.782 -4.659,4.318 -7.694,4.318 z"
               id="path28"
               style="fill:#ffffff;fill-opacity:1" />
          </g>
        </g>
      </g>
    </g>
  </g>
  <g
     inkscape:groupmode="layer"
     id="layer4"
     inkscape:label="Layer 2" />
</svg>
