<?xml version="1.0" encoding="UTF-8" standalone="no"?>
<!-- Created with Inkscape (http://www.inkscape.org/) -->

<svg
   xmlns:dc="http://purl.org/dc/elements/1.1/"
   xmlns:cc="http://creativecommons.org/ns#"
   xmlns:rdf="http://www.w3.org/1999/02/22-rdf-syntax-ns#"
   xmlns:svg="http://www.w3.org/2000/svg"
   xmlns="http://www.w3.org/2000/svg"
   xmlns:sodipodi="http://sodipodi.sourceforge.net/DTD/sodipodi-0.dtd"
   xmlns:inkscape="http://www.inkscape.org/namespaces/inkscape"
   width="800"
   height="800"
   viewBox="0 0 800.00001 800.00001"
   id="svg5314"
   version="1.1"
   inkscape:version="0.91 r13725"
   enable-background="new"
   sodipodi:docname="whoisgeek.svg">
  <defs
     id="defs5316">
    <filter
       inkscape:collect="always"
       style="color-interpolation-filters:sRGB"
       id="filter7426"
       x="-0.048198583"
       width="1.0963972"
       y="-0.039140784"
       height="1.0782816">
      <feGaussianBlur
         inkscape:collect="always"
         stdDeviation="0.728622"
         id="feGaussianBlur7428" />
    </filter>
  </defs>
  <sodipodi:namedview
     id="base"
     pagecolor="#ffffff"
     bordercolor="#666666"
     borderopacity="1.0"
     inkscape:pageopacity="0.0"
     inkscape:pageshadow="2"
     inkscape:zoom="0.35"
     inkscape:cx="0.71428571"
     inkscape:cy="62.857143"
     inkscape:document-units="px"
     inkscape:current-layer="layer2"
     showgrid="false"
     units="px"
     inkscape:window-width="1366"
     inkscape:window-height="694"
     inkscape:window-x="0"
     inkscape:window-y="32"
     inkscape:window-maximized="1" />
  <metadata
     id="metadata5319">
    <rdf:RDF>
      <cc:Work
         rdf:about="">
        <dc:format>image/svg+xml</dc:format>
        <dc:type
           rdf:resource="http://purl.org/dc/dcmitype/StillImage" />
        <dc:title></dc:title>
      </cc:Work>
    </rdf:RDF>
  </metadata>
  <g
     inkscape:label="Layer 1"
     inkscape:groupmode="layer"
     id="layer1"
     transform="translate(0,-252.36216)">
    <circle
       style="opacity:1;fill:#2196f3;fill-opacity:1;stroke:#2196f3;stroke-width:1;stroke-opacity:1"
       id="path5866"
       cx="400.28571"
       cy="652.64789"
       r="391.42856" />
  </g>
  <g
     inkscape:groupmode="layer"
     id="layer2"
     inkscape:label="Layer 2"
     style="display:inline">
    <g
       style="opacity:0.556;fill:#000000;fill-opacity:1;filter:url(#filter7426)"
       id="g7376"
       transform="matrix(10.720566,0,0,10.720566,200.51864,192.80435)">
      <g
         style="fill:#000000;fill-opacity:1"
         id="g7378">
        <g
           style="fill:#000000;fill-opacity:1"
           id="g7380">
          <path
             style="fill:#000000;fill-opacity:1"
             id="path7382"
             d="m 13.16,18.613 c 0,0 -0.063,-0.694 -0.094,-1.042 0.164,-0.094 0.321,-0.196 0.468,-0.31 0.261,0.15 0.781,0.451 0.781,0.451 l 0.887,-0.233 1.006,-1.739 -0.233,-0.887 c 0,0 -0.67,-0.389 -1.005,-0.581 -0.009,-0.193 -0.03,-0.385 -0.069,-0.569 0.266,-0.229 0.796,-0.682 0.796,-0.682 l 0,-0.917 -1.309,-1.526 -0.917,0 c 0,0 -0.435,0.372 -0.652,0.559 C 12.583,11.023 12.334,10.929 12.074,10.858 12.053,10.6 12.011,10.083 12.011,10.083 L 11.363,9.435 9.36,9.597 8.712,10.245 c 0,0 0.055,0.681 0.082,1.021 C 8.598,11.377 8.413,11.503 8.24,11.644 7.959,11.514 7.394,11.257 7.394,11.257 l -0.887,0.232 -0.839,1.828 -0.029,0.125 0.263,0.762 c 0,0 0.654,0.299 0.982,0.449 0.014,0.216 0.047,0.425 0.101,0.63 -0.25,0.21 -0.749,0.635 -0.749,0.635 l 0,0.916 1.299,1.534 c 0,0 0.755,0.09 0.796,0.067 0.041,-0.022 0.122,-0.067 0.122,-0.067 0,0 0.475,-0.402 0.712,-0.604 0.2,0.09 0.409,0.165 0.626,0.224 0.024,0.27 0.074,0.809 0.074,0.809 l 0.648,0.648 2,-0.183 0.647,-0.649 z m -2.345,-2.152 c -1.116,0 -2.021,-0.905 -2.021,-2.021 0,-1.117 0.905,-2.022 2.021,-2.022 1.118,0 2.023,0.905 2.023,2.022 0,1.115 -0.905,2.021 -2.023,2.021 z"
             inkscape:connector-curvature="0" />
          <path
             style="fill:#000000;fill-opacity:1"
             id="path7384"
             d="m 18.718,25.188 c 0,0 -0.048,-0.525 -0.071,-0.789 0.124,-0.07 0.243,-0.147 0.354,-0.233 0.197,0.112 0.59,0.341 0.59,0.341 l 0.671,-0.176 0.761,-1.315 -0.176,-0.67 c 0,0 -0.506,-0.294 -0.76,-0.439 -0.006,-0.146 -0.022,-0.291 -0.052,-0.43 0.201,-0.172 0.602,-0.516 0.602,-0.516 l 0,-0.693 -0.99,-1.154 -0.694,0 c 0,0 -0.329,0.281 -0.493,0.422 C 18.282,19.45 18.093,19.379 17.897,19.325 17.881,19.13 17.85,18.739 17.85,18.739 l -0.49,-0.49 -1.514,0.123 -0.49,0.49 c 0,0 0.042,0.515 0.062,0.771 -0.148,0.084 -0.289,0.18 -0.419,0.286 -0.212,-0.098 -0.639,-0.292 -0.639,-0.292 l -0.671,0.176 -0.634,1.382 -0.022,0.094 0.199,0.576 c 0,0 0.495,0.226 0.742,0.339 0.011,0.164 0.036,0.32 0.077,0.477 -0.189,0.159 -0.566,0.479 -0.566,0.479 l 0,0.693 0.982,1.16 c 0,0 0.571,0.068 0.602,0.051 0.031,-0.017 0.092,-0.051 0.092,-0.051 0,0 0.359,-0.305 0.538,-0.456 0.151,0.067 0.309,0.125 0.474,0.169 0.019,0.204 0.056,0.611 0.056,0.611 l 0.49,0.49 1.512,-0.139 0.487,-0.49 z m -1.773,-1.627 c -0.844,0 -1.528,-0.686 -1.528,-1.529 0,-0.844 0.684,-1.528 1.528,-1.528 0.845,0 1.53,0.685 1.53,1.528 0,0.843 -0.685,1.529 -1.53,1.529 z"
             inkscape:connector-curvature="0" />
          <path
             style="fill:#000000;fill-opacity:1"
             id="path7386"
             d="m 32.653,6.125 c -6.418,0 -12.835,0 -19.253,0 -1.612,0 -1.612,2.5 0,2.5 6.418,0 12.835,0 19.253,0 1.612,0 1.612,-2.5 0,-2.5 z"
             inkscape:connector-curvature="0" />
          <path
             style="fill:#000000;fill-opacity:1"
             id="path7388"
             d="m 32.653,12.042 c -6.418,0 -2.836,0 -9.254,0 -1.611,0 -1.611,2.5 0,2.5 6.418,0 2.836,0 9.254,0 1.612,0 1.612,-2.5 0,-2.5 z"
             inkscape:connector-curvature="0" />
          <polygon
             style="fill:#000000;fill-opacity:1"
             id="polygon7390"
             points="7.198,3 36.253,3 36.253,18.867 39.253,18.867 39.253,0 4.198,0 4.198,9.784 7.198,9.784 " />
          <path
             style="fill:#000000;fill-opacity:1"
             id="path7392"
             d="m 33.97,35.793 c -0.004,-0.319 -0.029,-0.637 -0.084,-0.943 0.449,-0.361 1.35,-1.082 1.35,-1.082 l 0.049,-1.511 -2.076,-2.586 -1.514,-0.049 c 0,0 -0.736,0.592 -1.104,0.887 -0.383,-0.2 -0.789,-0.369 -1.213,-0.5 -0.021,-0.427 -0.064,-1.282 -0.064,-1.282 l -1.035,-1.102 -3.309,0.161 -1.104,1.034 c 0,0 0.055,1.125 0.08,1.687 -0.328,0.173 -0.641,0.372 -0.933,0.593 -0.457,-0.228 -1.374,-0.683 -1.374,-0.683 l -1.475,0.337 -1.479,2.97 -0.055,0.203 0.392,1.271 c 0,0 1.063,0.526 1.595,0.791 0.012,0.357 0.056,0.705 0.133,1.043 -0.423,0.334 -1.269,1.009 -1.269,1.009 l -0.049,1.509 2.06,2.598 c 0,0 1.24,0.188 1.308,0.153 0.068,-0.035 0.204,-0.104 0.204,-0.104 0,0 0.805,-0.638 1.207,-0.957 0.324,0.16 0.664,0.295 1.02,0.402 0.025,0.446 0.078,1.338 0.078,1.338 l 1.035,1.102 3.305,-0.194 1.104,-1.032 c 0,0 -0.066,-1.149 -0.1,-1.724 0.273,-0.146 0.539,-0.308 0.789,-0.487 0.42,0.262 1.264,0.786 1.264,0.786 l 1.475,-0.338 1.752,-2.813 -0.338,-1.476 c 0.002,-0.001 -1.082,-0.675 -1.625,-1.011 z m -6.965,3.386 C 25.165,39.12 23.72,37.58 23.78,35.741 c 0.059,-1.844 1.6,-3.286 3.439,-3.228 1.842,0.06 3.285,1.599 3.227,3.442 -0.06,1.841 -1.599,3.283 -3.441,3.224 z"
             inkscape:connector-curvature="0" />
          <path
             style="fill:#000000;fill-opacity:1"
             id="path7394"
             d="m 40.116,28.74 c 0,0 -1.166,-0.725 -1.75,-1.086 -0.004,-0.344 -0.029,-0.684 -0.09,-1.013 0.484,-0.389 1.453,-1.165 1.453,-1.165 l 0.053,-1.625 -2.234,-2.782 -1.627,-0.053 c 0,0 -0.793,0.635 -1.188,0.955 -0.412,-0.217 -0.848,-0.399 -1.307,-0.539 -0.021,-0.46 -0.066,-1.379 -0.066,-1.379 l -1.111,-1.187 -3.562,0.174 -1.186,1.112 c 0,0 0.059,1.209 0.086,1.813 -0.354,0.187 -0.689,0.399 -1.002,0.64 -0.492,-0.246 -1.48,-0.734 -1.48,-0.734 l -1.584,0.363 -1.593,3.192 -0.06,0.22 0.423,1.366 c 0,0 0.746,0.37 1.335,0.662 l 0.66,-0.619 0.27,-0.251 0.367,-0.018 2.656,-0.129 c 0.465,-1.506 1.877,-2.584 3.527,-2.53 1.982,0.063 3.535,1.719 3.471,3.7 -0.016,0.533 -0.156,1.031 -0.379,1.479 l 1.865,2.324 0.232,0.289 -0.012,0.37 -0.031,0.958 c 0.387,0.24 0.758,0.471 0.758,0.471 l 1.586,-0.363 1.883,-3.025 -0.363,-1.59 z"
             inkscape:connector-curvature="0" />
          <path
             style="fill:#000000;fill-opacity:1"
             id="path7396"
             d="m 5.927,25.189 c 0.294,0 0.537,-0.08 0.73,-0.238 C 6.85,24.794 6.996,24.57 7.093,24.281 7.19,23.99 7.239,23.609 7.239,23.136 7.239,22.738 7.208,22.42 7.149,22.187 7.088,21.95 7.004,21.751 6.899,21.586 6.791,21.423 6.657,21.297 6.495,21.211 6.332,21.125 6.143,21.081 5.927,21.081 c -0.293,0 -0.536,0.078 -0.729,0.236 -0.193,0.157 -0.339,0.38 -0.438,0.67 -0.096,0.292 -0.146,0.673 -0.146,1.149 0,0.756 0.132,1.301 0.396,1.637 0.223,0.277 0.528,0.416 0.917,0.416 z M 5.378,21.778 c 0.135,-0.192 0.317,-0.289 0.544,-0.289 0.23,0 0.422,0.109 0.578,0.326 0.154,0.218 0.232,0.658 0.232,1.32 0,0.659 -0.078,1.098 -0.232,1.316 -0.155,0.221 -0.346,0.33 -0.572,0.33 -0.227,0 -0.418,-0.109 -0.572,-0.328 C 5.201,24.234 5.124,23.795 5.124,23.135 5.122,22.477 5.207,22.023 5.378,21.778 Z"
             inkscape:connector-curvature="0" />
          <path
             style="fill:#000000;fill-opacity:1"
             id="path7398"
             d="m 8.843,21.619 c -0.207,0.185 -0.449,0.342 -0.725,0.473 l 0,0.477 c 0.154,-0.056 0.328,-0.141 0.521,-0.254 0.193,-0.113 0.348,-0.228 0.467,-0.34 l 0,3.147 0.494,0 0,-4.04 -0.319,0 C 9.196,21.256 9.05,21.434 8.843,21.619 Z"
             inkscape:connector-curvature="0" />
          <path
             style="fill:#000000;fill-opacity:1"
             id="path7400"
             d="M 6.993,27.587 C 6.886,27.424 6.753,27.298 6.589,27.212 6.426,27.126 6.237,27.082 6.021,27.082 c -0.292,0 -0.536,0.078 -0.729,0.236 -0.193,0.156 -0.337,0.379 -0.436,0.67 -0.097,0.289 -0.147,0.673 -0.147,1.147 0,0.756 0.133,1.302 0.398,1.636 0.221,0.278 0.525,0.418 0.914,0.418 0.294,0 0.538,-0.08 0.732,-0.238 0.191,-0.158 0.337,-0.383 0.435,-0.672 0.097,-0.289 0.146,-0.67 0.146,-1.144 0,-0.397 -0.03,-0.716 -0.09,-0.95 C 7.182,27.949 7.098,27.751 6.993,27.587 Z m -0.4,2.866 c -0.155,0.22 -0.345,0.33 -0.572,0.33 -0.227,0 -0.417,-0.11 -0.572,-0.329 -0.155,-0.218 -0.23,-0.658 -0.23,-1.318 0,-0.659 0.083,-1.112 0.253,-1.358 0.135,-0.191 0.317,-0.289 0.544,-0.289 0.231,0 0.423,0.109 0.578,0.326 0.155,0.219 0.232,0.658 0.232,1.32 -10e-4,0.661 -0.078,1.099 -0.233,1.318 z"
             inkscape:connector-curvature="0" />
          <path
             style="fill:#000000;fill-opacity:1"
             id="path7402"
             d="m 9.695,31.121 0,-4.04 -0.319,0 C 9.291,27.255 9.144,27.434 8.938,27.619 8.732,27.804 8.49,27.961 8.214,28.092 l 0,0.477 c 0.153,-0.056 0.327,-0.141 0.52,-0.254 0.193,-0.113 0.349,-0.228 0.467,-0.34 l 0,3.147 0.494,-0.001 0,0 z"
             inkscape:connector-curvature="0" />
          <path
             style="fill:#000000;fill-opacity:1"
             id="path7404"
             d="m 12.403,31.121 0,-4.04 -0.318,0 c -0.085,0.174 -0.232,0.353 -0.438,0.538 -0.206,0.185 -0.448,0.342 -0.724,0.473 l 0,0.477 c 0.152,-0.056 0.327,-0.141 0.52,-0.254 0.193,-0.113 0.35,-0.228 0.467,-0.34 l 0,3.147 0.493,-0.001 0,0 z"
             inkscape:connector-curvature="0" />
          <path
             style="fill:#000000;fill-opacity:1"
             id="path7406"
             d="m 15.952,27.587 c -0.107,-0.163 -0.24,-0.289 -0.404,-0.375 -0.163,-0.086 -0.352,-0.13 -0.567,-0.13 -0.293,0 -0.537,0.078 -0.73,0.236 -0.193,0.156 -0.337,0.379 -0.436,0.67 -0.097,0.291 -0.146,0.673 -0.146,1.148 0,0.756 0.132,1.301 0.397,1.637 0.221,0.277 0.526,0.416 0.915,0.416 0.293,0 0.537,-0.08 0.73,-0.238 0.193,-0.157 0.337,-0.381 0.435,-0.67 0.097,-0.291 0.147,-0.672 0.147,-1.145 0,-0.398 -0.031,-0.716 -0.092,-0.949 -0.059,-0.238 -0.142,-0.436 -0.249,-0.6 z m -0.4,2.866 c -0.155,0.22 -0.345,0.33 -0.571,0.33 -0.228,0 -0.418,-0.11 -0.574,-0.329 -0.155,-0.218 -0.23,-0.658 -0.23,-1.318 0,-0.659 0.085,-1.112 0.253,-1.358 0.137,-0.191 0.317,-0.289 0.544,-0.289 0.231,0 0.423,0.109 0.578,0.326 0.155,0.219 0.232,0.658 0.232,1.32 10e-4,0.661 -0.076,1.099 -0.232,1.318 z"
             inkscape:connector-curvature="0" />
          <path
             style="fill:#000000;fill-opacity:1"
             id="path7408"
             d="M 6.993,34.332 C 6.886,34.168 6.753,34.043 6.589,33.956 6.426,33.87 6.237,33.826 6.021,33.826 c -0.292,0 -0.536,0.078 -0.729,0.236 -0.193,0.156 -0.337,0.381 -0.436,0.67 -0.097,0.291 -0.147,0.672 -0.147,1.148 0,0.757 0.133,1.302 0.398,1.636 0.221,0.278 0.525,0.419 0.914,0.419 0.294,0 0.538,-0.08 0.732,-0.238 0.191,-0.158 0.337,-0.383 0.435,-0.672 0.097,-0.289 0.146,-0.672 0.146,-1.145 0,-0.396 -0.03,-0.716 -0.09,-0.95 C 7.182,34.695 7.098,34.496 6.993,34.332 Z m -0.4,2.867 c -0.155,0.219 -0.345,0.328 -0.572,0.328 -0.227,0 -0.417,-0.108 -0.572,-0.328 -0.155,-0.219 -0.23,-0.657 -0.23,-1.318 0,-0.659 0.083,-1.111 0.253,-1.357 0.135,-0.191 0.317,-0.289 0.544,-0.289 0.231,0 0.423,0.109 0.578,0.326 0.155,0.219 0.232,0.658 0.232,1.32 -10e-4,0.659 -0.078,1.098 -0.233,1.318 z"
             inkscape:connector-curvature="0" />
          <path
             style="fill:#000000;fill-opacity:1"
             id="path7410"
             d="M 10.119,34.332 C 10.011,34.168 9.877,34.043 9.715,33.956 9.552,33.87 9.363,33.826 9.147,33.826 c -0.292,0 -0.536,0.078 -0.729,0.236 -0.193,0.156 -0.339,0.381 -0.438,0.67 -0.097,0.291 -0.146,0.672 -0.146,1.147 0,0.757 0.132,1.302 0.396,1.636 0.222,0.278 0.526,0.418 0.915,0.418 0.294,0 0.538,-0.078 0.73,-0.238 0.193,-0.157 0.339,-0.381 0.436,-0.672 0.097,-0.289 0.146,-0.67 0.146,-1.144 0,-0.397 -0.031,-0.716 -0.09,-0.95 -0.059,-0.234 -0.143,-0.433 -0.248,-0.597 z m -0.4,2.867 C 9.564,37.418 9.374,37.527 9.147,37.527 8.92,37.527 8.729,37.419 8.575,37.199 8.42,36.98 8.343,36.542 8.343,35.881 c 0,-0.659 0.085,-1.111 0.255,-1.357 0.135,-0.191 0.317,-0.289 0.544,-0.289 0.231,0 0.423,0.109 0.578,0.326 0.154,0.219 0.232,0.658 0.232,1.32 -10e-4,0.659 -0.079,1.098 -0.233,1.318 z"
             inkscape:connector-curvature="0" />
          <path
             style="fill:#000000;fill-opacity:1"
             id="path7412"
             d="m 13.243,34.332 c -0.106,-0.164 -0.24,-0.289 -0.402,-0.376 -0.165,-0.086 -0.354,-0.13 -0.568,-0.13 -0.292,0 -0.536,0.078 -0.729,0.236 -0.194,0.156 -0.339,0.381 -0.438,0.67 -0.097,0.291 -0.146,0.672 -0.146,1.147 0,0.757 0.132,1.302 0.396,1.636 0.222,0.278 0.526,0.418 0.915,0.418 0.293,0 0.538,-0.078 0.73,-0.238 0.193,-0.157 0.337,-0.381 0.435,-0.672 0.097,-0.289 0.147,-0.67 0.147,-1.144 0,-0.397 -0.031,-0.716 -0.092,-0.95 -0.057,-0.234 -0.141,-0.433 -0.248,-0.597 z m -0.399,2.867 c -0.154,0.219 -0.346,0.328 -0.571,0.328 -0.228,0 -0.418,-0.108 -0.573,-0.328 -0.155,-0.219 -0.231,-0.657 -0.231,-1.318 0,-0.659 0.085,-1.111 0.254,-1.357 0.136,-0.191 0.318,-0.289 0.544,-0.289 0.23,0 0.423,0.109 0.578,0.326 0.155,0.219 0.233,0.658 0.233,1.32 -10e-4,0.659 -0.079,1.098 -0.234,1.318 z"
             inkscape:connector-curvature="0" />
          <path
             style="fill:#000000;fill-opacity:1"
             id="path7414"
             d="m 15.948,37.865 0,-4.039 -0.318,0 c -0.086,0.174 -0.233,0.353 -0.44,0.537 -0.207,0.186 -0.448,0.343 -0.724,0.474 l 0,0.478 c 0.154,-0.058 0.327,-0.143 0.52,-0.256 0.193,-0.113 0.35,-0.228 0.467,-0.34 l 0,3.148 0.495,0 0,-0.002 z"
             inkscape:connector-curvature="0" />
          <path
             style="fill:#000000;fill-opacity:1"
             id="path7416"
             d="m 18.615,40.912 c -0.207,0.185 -0.449,0.342 -0.725,0.473 l 0,0.477 c 0.154,-0.057 0.328,-0.141 0.521,-0.254 0.193,-0.112 0.348,-0.227 0.467,-0.34 l 0,3.147 0.494,0 0,-4.041 -0.319,0 c -0.086,0.174 -0.232,0.353 -0.438,0.538 z"
             inkscape:connector-curvature="0" />
          <path
             style="fill:#000000;fill-opacity:1"
             id="path7418"
             d="M 6.993,41.076 C 6.886,40.913 6.753,40.788 6.589,40.701 6.426,40.613 6.237,40.57 6.021,40.57 c -0.292,0 -0.536,0.078 -0.729,0.235 -0.193,0.157 -0.337,0.382 -0.436,0.671 -0.097,0.291 -0.147,0.674 -0.147,1.149 0,0.756 0.133,1.3 0.398,1.636 0.221,0.276 0.525,0.416 0.914,0.416 0.294,0 0.538,-0.078 0.732,-0.236 0.191,-0.158 0.337,-0.384 0.435,-0.674 0.097,-0.289 0.146,-0.671 0.146,-1.142 0,-0.399 -0.03,-0.718 -0.09,-0.951 C 7.182,41.439 7.098,41.24 6.993,41.076 Z m -0.4,2.867 c -0.155,0.22 -0.345,0.33 -0.572,0.33 -0.227,0 -0.417,-0.11 -0.572,-0.33 -0.155,-0.219 -0.23,-0.656 -0.23,-1.316 0,-0.661 0.083,-1.113 0.253,-1.359 0.135,-0.191 0.317,-0.287 0.544,-0.287 0.231,0 0.423,0.107 0.578,0.326 0.155,0.217 0.232,0.657 0.232,1.32 -10e-4,0.658 -0.078,1.097 -0.233,1.316 z"
             inkscape:connector-curvature="0" />
          <path
             style="fill:#000000;fill-opacity:1"
             id="path7420"
             d="M 8.938,41.107 C 8.731,41.293 8.49,41.449 8.214,41.581 l 0,0.477 c 0.153,-0.057 0.327,-0.141 0.52,-0.254 0.193,-0.112 0.349,-0.228 0.467,-0.34 l 0,3.147 0.494,0 0,-4.041 -0.319,0 c -0.085,0.175 -0.232,0.353 -0.438,0.537 z"
             inkscape:connector-curvature="0" />
          <path
             style="fill:#000000;fill-opacity:1"
             id="path7422"
             d="m 11.647,41.107 c -0.207,0.186 -0.448,0.342 -0.724,0.474 l 0,0.477 c 0.152,-0.057 0.327,-0.141 0.52,-0.254 0.193,-0.112 0.35,-0.228 0.467,-0.34 l 0,3.147 0.494,0 0,-4.041 -0.318,0 C 12,40.745 11.853,40.923 11.647,41.107 Z"
             inkscape:connector-curvature="0" />
          <path
             style="fill:#000000;fill-opacity:1"
             id="path7424"
             d="m 15.952,41.076 c -0.107,-0.163 -0.24,-0.288 -0.404,-0.375 -0.163,-0.088 -0.352,-0.131 -0.567,-0.131 -0.293,0 -0.537,0.078 -0.73,0.235 -0.193,0.157 -0.337,0.382 -0.436,0.671 -0.097,0.291 -0.146,0.674 -0.146,1.149 0,0.756 0.132,1.3 0.397,1.636 0.221,0.276 0.526,0.416 0.915,0.416 0.293,0 0.537,-0.078 0.73,-0.236 0.193,-0.158 0.337,-0.384 0.435,-0.674 0.097,-0.289 0.147,-0.671 0.147,-1.142 0,-0.399 -0.031,-0.718 -0.092,-0.951 -0.059,-0.235 -0.142,-0.434 -0.249,-0.598 z m -0.4,2.867 c -0.155,0.22 -0.345,0.33 -0.571,0.33 -0.228,0 -0.418,-0.11 -0.574,-0.33 -0.155,-0.219 -0.23,-0.656 -0.23,-1.316 0,-0.661 0.085,-1.113 0.253,-1.359 0.137,-0.191 0.317,-0.287 0.544,-0.287 0.231,0 0.423,0.107 0.578,0.326 0.155,0.217 0.232,0.657 0.232,1.32 10e-4,0.658 -0.076,1.097 -0.232,1.316 z"
             inkscape:connector-curvature="0" />
        </g>
      </g>
    </g>
    <g
       transform="matrix(10.720566,0,0,10.720566,161.6615,166.51864)"
       id="g3"
       style="fill:#ffffff;fill-opacity:1">
      <g
         id="_x31_86_50_"
         style="fill:#ffffff;fill-opacity:1">
        <g
           id="g6"
           style="fill:#ffffff;fill-opacity:1">
          <path
             inkscape:connector-curvature="0"
             d="m 13.16,18.613 c 0,0 -0.063,-0.694 -0.094,-1.042 0.164,-0.094 0.321,-0.196 0.468,-0.31 0.261,0.15 0.781,0.451 0.781,0.451 l 0.887,-0.233 1.006,-1.739 -0.233,-0.887 c 0,0 -0.67,-0.389 -1.005,-0.581 -0.009,-0.193 -0.03,-0.385 -0.069,-0.569 0.266,-0.229 0.796,-0.682 0.796,-0.682 l 0,-0.917 -1.309,-1.526 -0.917,0 c 0,0 -0.435,0.372 -0.652,0.559 C 12.583,11.023 12.334,10.929 12.074,10.858 12.053,10.6 12.011,10.083 12.011,10.083 L 11.363,9.435 9.36,9.597 8.712,10.245 c 0,0 0.055,0.681 0.082,1.021 C 8.598,11.377 8.413,11.503 8.24,11.644 7.959,11.514 7.394,11.257 7.394,11.257 l -0.887,0.232 -0.839,1.828 -0.029,0.125 0.263,0.762 c 0,0 0.654,0.299 0.982,0.449 0.014,0.216 0.047,0.425 0.101,0.63 -0.25,0.21 -0.749,0.635 -0.749,0.635 l 0,0.916 1.299,1.534 c 0,0 0.755,0.09 0.796,0.067 0.041,-0.022 0.122,-0.067 0.122,-0.067 0,0 0.475,-0.402 0.712,-0.604 0.2,0.09 0.409,0.165 0.626,0.224 0.024,0.27 0.074,0.809 0.074,0.809 l 0.648,0.648 2,-0.183 0.647,-0.649 z m -2.345,-2.152 c -1.116,0 -2.021,-0.905 -2.021,-2.021 0,-1.117 0.905,-2.022 2.021,-2.022 1.118,0 2.023,0.905 2.023,2.022 0,1.115 -0.905,2.021 -2.023,2.021 z"
             id="path8"
             style="fill:#ffffff;fill-opacity:1" />
          <path
             inkscape:connector-curvature="0"
             d="m 18.718,25.188 c 0,0 -0.048,-0.525 -0.071,-0.789 0.124,-0.07 0.243,-0.147 0.354,-0.233 0.197,0.112 0.59,0.341 0.59,0.341 l 0.671,-0.176 0.761,-1.315 -0.176,-0.67 c 0,0 -0.506,-0.294 -0.76,-0.439 -0.006,-0.146 -0.022,-0.291 -0.052,-0.43 0.201,-0.172 0.602,-0.516 0.602,-0.516 l 0,-0.693 -0.99,-1.154 -0.694,0 c 0,0 -0.329,0.281 -0.493,0.422 C 18.282,19.45 18.093,19.379 17.897,19.325 17.881,19.13 17.85,18.739 17.85,18.739 l -0.49,-0.49 -1.514,0.123 -0.49,0.49 c 0,0 0.042,0.515 0.062,0.771 -0.148,0.084 -0.289,0.18 -0.419,0.286 -0.212,-0.098 -0.639,-0.292 -0.639,-0.292 l -0.671,0.176 -0.634,1.382 -0.022,0.094 0.199,0.576 c 0,0 0.495,0.226 0.742,0.339 0.011,0.164 0.036,0.32 0.077,0.477 -0.189,0.159 -0.566,0.479 -0.566,0.479 l 0,0.693 0.982,1.16 c 0,0 0.571,0.068 0.602,0.051 0.031,-0.017 0.092,-0.051 0.092,-0.051 0,0 0.359,-0.305 0.538,-0.456 0.151,0.067 0.309,0.125 0.474,0.169 0.019,0.204 0.056,0.611 0.056,0.611 l 0.49,0.49 1.512,-0.139 0.487,-0.49 z m -1.773,-1.627 c -0.844,0 -1.528,-0.686 -1.528,-1.529 0,-0.844 0.684,-1.528 1.528,-1.528 0.845,0 1.53,0.685 1.53,1.528 0,0.843 -0.685,1.529 -1.53,1.529 z"
             id="path10"
             style="fill:#ffffff;fill-opacity:1" />
          <path
             inkscape:connector-curvature="0"
             d="m 32.653,6.125 c -6.418,0 -12.835,0 -19.253,0 -1.612,0 -1.612,2.5 0,2.5 6.418,0 12.835,0 19.253,0 1.612,0 1.612,-2.5 0,-2.5 z"
             id="path12"
             style="fill:#ffffff;fill-opacity:1" />
          <path
             inkscape:connector-curvature="0"
             d="m 32.653,12.042 c -6.418,0 -2.836,0 -9.254,0 -1.611,0 -1.611,2.5 0,2.5 6.418,0 2.836,0 9.254,0 1.612,0 1.612,-2.5 0,-2.5 z"
             id="path14"
             style="fill:#ffffff;fill-opacity:1" />
          <polygon
             points="36.253,18.867 39.253,18.867 39.253,0 4.198,0 4.198,9.784 7.198,9.784 7.198,3 36.253,3 "
             id="polygon16"
             style="fill:#ffffff;fill-opacity:1" />
          <path
             inkscape:connector-curvature="0"
             d="m 33.97,35.793 c -0.004,-0.319 -0.029,-0.637 -0.084,-0.943 0.449,-0.361 1.35,-1.082 1.35,-1.082 l 0.049,-1.511 -2.076,-2.586 -1.514,-0.049 c 0,0 -0.736,0.592 -1.104,0.887 -0.383,-0.2 -0.789,-0.369 -1.213,-0.5 -0.021,-0.427 -0.064,-1.282 -0.064,-1.282 l -1.035,-1.102 -3.309,0.161 -1.104,1.034 c 0,0 0.055,1.125 0.08,1.687 -0.328,0.173 -0.641,0.372 -0.933,0.593 -0.457,-0.228 -1.374,-0.683 -1.374,-0.683 l -1.475,0.337 -1.479,2.97 -0.055,0.203 0.392,1.271 c 0,0 1.063,0.526 1.595,0.791 0.012,0.357 0.056,0.705 0.133,1.043 -0.423,0.334 -1.269,1.009 -1.269,1.009 l -0.049,1.509 2.06,2.598 c 0,0 1.24,0.188 1.308,0.153 0.068,-0.035 0.204,-0.104 0.204,-0.104 0,0 0.805,-0.638 1.207,-0.957 0.324,0.16 0.664,0.295 1.02,0.402 0.025,0.446 0.078,1.338 0.078,1.338 l 1.035,1.102 3.305,-0.194 1.104,-1.032 c 0,0 -0.066,-1.149 -0.1,-1.724 0.273,-0.146 0.539,-0.308 0.789,-0.487 0.42,0.262 1.264,0.786 1.264,0.786 l 1.475,-0.338 1.752,-2.813 -0.338,-1.476 c 0.002,-0.001 -1.082,-0.675 -1.625,-1.011 z m -6.965,3.386 C 25.165,39.12 23.72,37.58 23.78,35.741 c 0.059,-1.844 1.6,-3.286 3.439,-3.228 1.842,0.06 3.285,1.599 3.227,3.442 -0.06,1.841 -1.599,3.283 -3.441,3.224 z"
             id="path18"
             style="fill:#ffffff;fill-opacity:1" />
          <path
             inkscape:connector-curvature="0"
             d="m 40.116,28.74 c 0,0 -1.166,-0.725 -1.75,-1.086 -0.004,-0.344 -0.029,-0.684 -0.09,-1.013 0.484,-0.389 1.453,-1.165 1.453,-1.165 l 0.053,-1.625 -2.234,-2.782 -1.627,-0.053 c 0,0 -0.793,0.635 -1.188,0.955 -0.412,-0.217 -0.848,-0.399 -1.307,-0.539 -0.021,-0.46 -0.066,-1.379 -0.066,-1.379 l -1.111,-1.187 -3.562,0.174 -1.186,1.112 c 0,0 0.059,1.209 0.086,1.813 -0.354,0.187 -0.689,0.399 -1.002,0.64 -0.492,-0.246 -1.48,-0.734 -1.48,-0.734 l -1.584,0.363 -1.593,3.192 -0.06,0.22 0.423,1.366 c 0,0 0.746,0.37 1.335,0.662 l 0.66,-0.619 0.27,-0.251 0.367,-0.018 2.656,-0.129 c 0.465,-1.506 1.877,-2.584 3.527,-2.53 1.982,0.063 3.535,1.719 3.471,3.7 -0.016,0.533 -0.156,1.031 -0.379,1.479 l 1.865,2.324 0.232,0.289 -0.012,0.37 -0.031,0.958 c 0.387,0.24 0.758,0.471 0.758,0.471 l 1.586,-0.363 1.883,-3.025 -0.363,-1.59 z"
             id="path20"
             style="fill:#ffffff;fill-opacity:1" />
          <path
             inkscape:connector-curvature="0"
             d="m 5.927,25.189 c 0.294,0 0.537,-0.08 0.73,-0.238 C 6.85,24.794 6.996,24.57 7.093,24.281 7.19,23.99 7.239,23.609 7.239,23.136 7.239,22.738 7.208,22.42 7.149,22.187 7.088,21.95 7.004,21.751 6.899,21.586 6.791,21.423 6.657,21.297 6.495,21.211 6.332,21.125 6.143,21.081 5.927,21.081 c -0.293,0 -0.536,0.078 -0.729,0.236 -0.193,0.157 -0.339,0.38 -0.438,0.67 -0.096,0.292 -0.146,0.673 -0.146,1.149 0,0.756 0.132,1.301 0.396,1.637 0.223,0.277 0.528,0.416 0.917,0.416 z M 5.378,21.778 c 0.135,-0.192 0.317,-0.289 0.544,-0.289 0.23,0 0.422,0.109 0.578,0.326 0.154,0.218 0.232,0.658 0.232,1.32 0,0.659 -0.078,1.098 -0.232,1.316 -0.155,0.221 -0.346,0.33 -0.572,0.33 -0.227,0 -0.418,-0.109 -0.572,-0.328 C 5.201,24.234 5.124,23.795 5.124,23.135 5.122,22.477 5.207,22.023 5.378,21.778 Z"
             id="path22"
             style="fill:#ffffff;fill-opacity:1" />
          <path
             inkscape:connector-curvature="0"
             d="m 8.843,21.619 c -0.207,0.185 -0.449,0.342 -0.725,0.473 l 0,0.477 c 0.154,-0.056 0.328,-0.141 0.521,-0.254 0.193,-0.113 0.348,-0.228 0.467,-0.34 l 0,3.147 0.494,0 0,-4.04 -0.319,0 C 9.196,21.256 9.05,21.434 8.843,21.619 Z"
             id="path24"
             style="fill:#ffffff;fill-opacity:1" />
          <path
             inkscape:connector-curvature="0"
             d="M 6.993,27.587 C 6.886,27.424 6.753,27.298 6.589,27.212 6.426,27.126 6.237,27.082 6.021,27.082 c -0.292,0 -0.536,0.078 -0.729,0.236 -0.193,0.156 -0.337,0.379 -0.436,0.67 -0.097,0.289 -0.147,0.673 -0.147,1.147 0,0.756 0.133,1.302 0.398,1.636 0.221,0.278 0.525,0.418 0.914,0.418 0.294,0 0.538,-0.08 0.732,-0.238 0.191,-0.158 0.337,-0.383 0.435,-0.672 0.097,-0.289 0.146,-0.67 0.146,-1.144 0,-0.397 -0.03,-0.716 -0.09,-0.95 C 7.182,27.949 7.098,27.751 6.993,27.587 Z m -0.4,2.866 c -0.155,0.22 -0.345,0.33 -0.572,0.33 -0.227,0 -0.417,-0.11 -0.572,-0.329 -0.155,-0.218 -0.23,-0.658 -0.23,-1.318 0,-0.659 0.083,-1.112 0.253,-1.358 0.135,-0.191 0.317,-0.289 0.544,-0.289 0.231,0 0.423,0.109 0.578,0.326 0.155,0.219 0.232,0.658 0.232,1.32 -10e-4,0.661 -0.078,1.099 -0.233,1.318 z"
             id="path26"
             style="fill:#ffffff;fill-opacity:1" />
          <path
             inkscape:connector-curvature="0"
             d="m 9.695,31.121 0,-4.04 -0.319,0 C 9.291,27.255 9.144,27.434 8.938,27.619 8.732,27.804 8.49,27.961 8.214,28.092 l 0,0.477 c 0.153,-0.056 0.327,-0.141 0.52,-0.254 0.193,-0.113 0.349,-0.228 0.467,-0.34 l 0,3.147 0.494,-0.001 0,0 z"
             id="path28"
             style="fill:#ffffff;fill-opacity:1" />
          <path
             inkscape:connector-curvature="0"
             d="m 12.403,31.121 0,-4.04 -0.318,0 c -0.085,0.174 -0.232,0.353 -0.438,0.538 -0.206,0.185 -0.448,0.342 -0.724,0.473 l 0,0.477 c 0.152,-0.056 0.327,-0.141 0.52,-0.254 0.193,-0.113 0.35,-0.228 0.467,-0.34 l 0,3.147 0.493,-0.001 0,0 z"
             id="path30"
             style="fill:#ffffff;fill-opacity:1" />
          <path
             inkscape:connector-curvature="0"
             d="m 15.952,27.587 c -0.107,-0.163 -0.24,-0.289 -0.404,-0.375 -0.163,-0.086 -0.352,-0.13 -0.567,-0.13 -0.293,0 -0.537,0.078 -0.73,0.236 -0.193,0.156 -0.337,0.379 -0.436,0.67 -0.097,0.291 -0.146,0.673 -0.146,1.148 0,0.756 0.132,1.301 0.397,1.637 0.221,0.277 0.526,0.416 0.915,0.416 0.293,0 0.537,-0.08 0.73,-0.238 0.193,-0.157 0.337,-0.381 0.435,-0.67 0.097,-0.291 0.147,-0.672 0.147,-1.145 0,-0.398 -0.031,-0.716 -0.092,-0.949 -0.059,-0.238 -0.142,-0.436 -0.249,-0.6 z m -0.4,2.866 c -0.155,0.22 -0.345,0.33 -0.571,0.33 -0.228,0 -0.418,-0.11 -0.574,-0.329 -0.155,-0.218 -0.23,-0.658 -0.23,-1.318 0,-0.659 0.085,-1.112 0.253,-1.358 0.137,-0.191 0.317,-0.289 0.544,-0.289 0.231,0 0.423,0.109 0.578,0.326 0.155,0.219 0.232,0.658 0.232,1.32 10e-4,0.661 -0.076,1.099 -0.232,1.318 z"
             id="path32"
             style="fill:#ffffff;fill-opacity:1" />
          <path
             inkscape:connector-curvature="0"
             d="M 6.993,34.332 C 6.886,34.168 6.753,34.043 6.589,33.956 6.426,33.87 6.237,33.826 6.021,33.826 c -0.292,0 -0.536,0.078 -0.729,0.236 -0.193,0.156 -0.337,0.381 -0.436,0.67 -0.097,0.291 -0.147,0.672 -0.147,1.148 0,0.757 0.133,1.302 0.398,1.636 0.221,0.278 0.525,0.419 0.914,0.419 0.294,0 0.538,-0.08 0.732,-0.238 0.191,-0.158 0.337,-0.383 0.435,-0.672 0.097,-0.289 0.146,-0.672 0.146,-1.145 0,-0.396 -0.03,-0.716 -0.09,-0.95 C 7.182,34.695 7.098,34.496 6.993,34.332 Z m -0.4,2.867 c -0.155,0.219 -0.345,0.328 -0.572,0.328 -0.227,0 -0.417,-0.108 -0.572,-0.328 -0.155,-0.219 -0.23,-0.657 -0.23,-1.318 0,-0.659 0.083,-1.111 0.253,-1.357 0.135,-0.191 0.317,-0.289 0.544,-0.289 0.231,0 0.423,0.109 0.578,0.326 0.155,0.219 0.232,0.658 0.232,1.32 -10e-4,0.659 -0.078,1.098 -0.233,1.318 z"
             id="path34"
             style="fill:#ffffff;fill-opacity:1" />
          <path
             inkscape:connector-curvature="0"
             d="M 10.119,34.332 C 10.011,34.168 9.877,34.043 9.715,33.956 9.552,33.87 9.363,33.826 9.147,33.826 c -0.292,0 -0.536,0.078 -0.729,0.236 -0.193,0.156 -0.339,0.381 -0.438,0.67 -0.097,0.291 -0.146,0.672 -0.146,1.147 0,0.757 0.132,1.302 0.396,1.636 0.222,0.278 0.526,0.418 0.915,0.418 0.294,0 0.538,-0.078 0.73,-0.238 0.193,-0.157 0.339,-0.381 0.436,-0.672 0.097,-0.289 0.146,-0.67 0.146,-1.144 0,-0.397 -0.031,-0.716 -0.09,-0.95 -0.059,-0.234 -0.143,-0.433 -0.248,-0.597 z m -0.4,2.867 C 9.564,37.418 9.374,37.527 9.147,37.527 8.92,37.527 8.729,37.419 8.575,37.199 8.42,36.98 8.343,36.542 8.343,35.881 c 0,-0.659 0.085,-1.111 0.255,-1.357 0.135,-0.191 0.317,-0.289 0.544,-0.289 0.231,0 0.423,0.109 0.578,0.326 0.154,0.219 0.232,0.658 0.232,1.32 -10e-4,0.659 -0.079,1.098 -0.233,1.318 z"
             id="path36"
             style="fill:#ffffff;fill-opacity:1" />
          <path
             inkscape:connector-curvature="0"
             d="m 13.243,34.332 c -0.106,-0.164 -0.24,-0.289 -0.402,-0.376 -0.165,-0.086 -0.354,-0.13 -0.568,-0.13 -0.292,0 -0.536,0.078 -0.729,0.236 -0.194,0.156 -0.339,0.381 -0.438,0.67 -0.097,0.291 -0.146,0.672 -0.146,1.147 0,0.757 0.132,1.302 0.396,1.636 0.222,0.278 0.526,0.418 0.915,0.418 0.293,0 0.538,-0.078 0.73,-0.238 0.193,-0.157 0.337,-0.381 0.435,-0.672 0.097,-0.289 0.147,-0.67 0.147,-1.144 0,-0.397 -0.031,-0.716 -0.092,-0.95 -0.057,-0.234 -0.141,-0.433 -0.248,-0.597 z m -0.399,2.867 c -0.154,0.219 -0.346,0.328 -0.571,0.328 -0.228,0 -0.418,-0.108 -0.573,-0.328 -0.155,-0.219 -0.231,-0.657 -0.231,-1.318 0,-0.659 0.085,-1.111 0.254,-1.357 0.136,-0.191 0.318,-0.289 0.544,-0.289 0.23,0 0.423,0.109 0.578,0.326 0.155,0.219 0.233,0.658 0.233,1.32 -10e-4,0.659 -0.079,1.098 -0.234,1.318 z"
             id="path38"
             style="fill:#ffffff;fill-opacity:1" />
          <path
             inkscape:connector-curvature="0"
             d="m 15.948,37.865 0,-4.039 -0.318,0 c -0.086,0.174 -0.233,0.353 -0.44,0.537 -0.207,0.186 -0.448,0.343 -0.724,0.474 l 0,0.478 c 0.154,-0.058 0.327,-0.143 0.52,-0.256 0.193,-0.113 0.35,-0.228 0.467,-0.34 l 0,3.148 0.495,0 0,-0.002 z"
             id="path40"
             style="fill:#ffffff;fill-opacity:1" />
          <path
             inkscape:connector-curvature="0"
             d="m 18.615,40.912 c -0.207,0.185 -0.449,0.342 -0.725,0.473 l 0,0.477 c 0.154,-0.057 0.328,-0.141 0.521,-0.254 0.193,-0.112 0.348,-0.227 0.467,-0.34 l 0,3.147 0.494,0 0,-4.041 -0.319,0 c -0.086,0.174 -0.232,0.353 -0.438,0.538 z"
             id="path42"
             style="fill:#ffffff;fill-opacity:1" />
          <path
             inkscape:connector-curvature="0"
             d="M 6.993,41.076 C 6.886,40.913 6.753,40.788 6.589,40.701 6.426,40.613 6.237,40.57 6.021,40.57 c -0.292,0 -0.536,0.078 -0.729,0.235 -0.193,0.157 -0.337,0.382 -0.436,0.671 -0.097,0.291 -0.147,0.674 -0.147,1.149 0,0.756 0.133,1.3 0.398,1.636 0.221,0.276 0.525,0.416 0.914,0.416 0.294,0 0.538,-0.078 0.732,-0.236 0.191,-0.158 0.337,-0.384 0.435,-0.674 0.097,-0.289 0.146,-0.671 0.146,-1.142 0,-0.399 -0.03,-0.718 -0.09,-0.951 C 7.182,41.439 7.098,41.24 6.993,41.076 Z m -0.4,2.867 c -0.155,0.22 -0.345,0.33 -0.572,0.33 -0.227,0 -0.417,-0.11 -0.572,-0.33 -0.155,-0.219 -0.23,-0.656 -0.23,-1.316 0,-0.661 0.083,-1.113 0.253,-1.359 0.135,-0.191 0.317,-0.287 0.544,-0.287 0.231,0 0.423,0.107 0.578,0.326 0.155,0.217 0.232,0.657 0.232,1.32 -10e-4,0.658 -0.078,1.097 -0.233,1.316 z"
             id="path44"
             style="fill:#ffffff;fill-opacity:1" />
          <path
             inkscape:connector-curvature="0"
             d="M 8.938,41.107 C 8.731,41.293 8.49,41.449 8.214,41.581 l 0,0.477 c 0.153,-0.057 0.327,-0.141 0.52,-0.254 0.193,-0.112 0.349,-0.228 0.467,-0.34 l 0,3.147 0.494,0 0,-4.041 -0.319,0 c -0.085,0.175 -0.232,0.353 -0.438,0.537 z"
             id="path46"
             style="fill:#ffffff;fill-opacity:1" />
          <path
             inkscape:connector-curvature="0"
             d="m 11.647,41.107 c -0.207,0.186 -0.448,0.342 -0.724,0.474 l 0,0.477 c 0.152,-0.057 0.327,-0.141 0.52,-0.254 0.193,-0.112 0.35,-0.228 0.467,-0.34 l 0,3.147 0.494,0 0,-4.041 -0.318,0 C 12,40.745 11.853,40.923 11.647,41.107 Z"
             id="path48"
             style="fill:#ffffff;fill-opacity:1" />
          <path
             inkscape:connector-curvature="0"
             d="m 15.952,41.076 c -0.107,-0.163 -0.24,-0.288 -0.404,-0.375 -0.163,-0.088 -0.352,-0.131 -0.567,-0.131 -0.293,0 -0.537,0.078 -0.73,0.235 -0.193,0.157 -0.337,0.382 -0.436,0.671 -0.097,0.291 -0.146,0.674 -0.146,1.149 0,0.756 0.132,1.3 0.397,1.636 0.221,0.276 0.526,0.416 0.915,0.416 0.293,0 0.537,-0.078 0.73,-0.236 0.193,-0.158 0.337,-0.384 0.435,-0.674 0.097,-0.289 0.147,-0.671 0.147,-1.142 0,-0.399 -0.031,-0.718 -0.092,-0.951 -0.059,-0.235 -0.142,-0.434 -0.249,-0.598 z m -0.4,2.867 c -0.155,0.22 -0.345,0.33 -0.571,0.33 -0.228,0 -0.418,-0.11 -0.574,-0.33 -0.155,-0.219 -0.23,-0.656 -0.23,-1.316 0,-0.661 0.085,-1.113 0.253,-1.359 0.137,-0.191 0.317,-0.287 0.544,-0.287 0.231,0 0.423,0.107 0.578,0.326 0.155,0.217 0.232,0.657 0.232,1.32 10e-4,0.658 -0.076,1.097 -0.232,1.316 z"
             id="path50"
             style="fill:#ffffff;fill-opacity:1" />
        </g>
      </g>
    </g>
  </g>
  <g
     inkscape:groupmode="layer"
     id="layer3"
     inkscape:label="Layer 3"
     style="display:inline" />
</svg>
