<?xml version="1.0" encoding="UTF-8" standalone="no"?>
<!-- Generator: Adobe Illustrator 16.0.0, SVG Export Plug-In . SVG Version: 6.00 Build 0)  -->

<svg
   xmlns:dc="http://purl.org/dc/elements/1.1/"
   xmlns:cc="http://creativecommons.org/ns#"
   xmlns:rdf="http://www.w3.org/1999/02/22-rdf-syntax-ns#"
   xmlns:svg="http://www.w3.org/2000/svg"
   xmlns="http://www.w3.org/2000/svg"
   xmlns:sodipodi="http://sodipodi.sourceforge.net/DTD/sodipodi-0.dtd"
   xmlns:inkscape="http://www.inkscape.org/namespaces/inkscape"
   version="1.1"
   id="Capa_1"
   x="0px"
   y="0px"
   width="100"
   height="100"
   viewBox="0 0 100 100"
   xml:space="preserve"
   inkscape:version="0.91 r13725"
   sodipodi:docname="workshop.svg"><metadata
     id="metadata79"><rdf:RDF><cc:Work
         rdf:about=""><dc:format>image/svg+xml</dc:format><dc:type
           rdf:resource="http://purl.org/dc/dcmitype/StillImage" /><dc:title /></cc:Work></rdf:RDF></metadata><defs
     id="defs77"><filter
       style="color-interpolation-filters:sRGB;"
       inkscape:label="Drop Shadow"
       id="filter4787"><feFlood
         flood-opacity="0.498039"
         flood-color="rgb(0,0,0)"
         result="flood"
         id="feFlood4789" /><feComposite
         in="flood"
         in2="SourceGraphic"
         operator="in"
         result="composite1"
         id="feComposite4791" /><feGaussianBlur
         in="composite1"
         stdDeviation="3"
         result="blur"
         id="feGaussianBlur4793" /><feOffset
         dx="6"
         dy="6"
         result="offset"
         id="feOffset4795" /><feComposite
         in="SourceGraphic"
         in2="offset"
         operator="over"
         result="fbSourceGraphic"
         id="feComposite4797" /><feColorMatrix
         result="fbSourceGraphicAlpha"
         in="fbSourceGraphic"
         values="0 0 0 -1 0 0 0 0 -1 0 0 0 0 -1 0 0 0 0 1 0"
         id="feColorMatrix4799" /><feFlood
         id="feFlood4801"
         flood-opacity="0.498039"
         flood-color="rgb(0,0,0)"
         result="flood"
         in="fbSourceGraphic" /><feComposite
         id="feComposite4803"
         in2="fbSourceGraphic"
         in="flood"
         operator="in"
         result="composite1" /><feGaussianBlur
         id="feGaussianBlur4805"
         in="composite1"
         stdDeviation="3"
         result="blur" /><feOffset
         id="feOffset4807"
         dx="6"
         dy="6"
         result="offset" /><feComposite
         id="feComposite4809"
         in2="offset"
         in="fbSourceGraphic"
         operator="over"
         result="fbSourceGraphic" /><feColorMatrix
         result="fbSourceGraphicAlpha"
         in="fbSourceGraphic"
         values="0 0 0 -1 0 0 0 0 -1 0 0 0 0 -1 0 0 0 0 1 0"
         id="feColorMatrix4183" /><feFlood
         id="feFlood4185"
         flood-opacity="0.560784"
         flood-color="rgb(0,0,0)"
         result="flood"
         in="fbSourceGraphic" /><feComposite
         id="feComposite4187"
         in2="fbSourceGraphic"
         in="flood"
         operator="in"
         result="composite1" /><feGaussianBlur
         id="feGaussianBlur4189"
         in="composite1"
         stdDeviation="3"
         result="blur" /><feOffset
         id="feOffset4191"
         dx="6"
         dy="6"
         result="offset" /><feComposite
         id="feComposite4193"
         in2="offset"
         in="fbSourceGraphic"
         operator="over"
         result="composite2" /></filter></defs><sodipodi:namedview
     pagecolor="#ffffff"
     bordercolor="#666666"
     borderopacity="1"
     objecttolerance="10"
     gridtolerance="10"
     guidetolerance="10"
     inkscape:pageopacity="0"
     inkscape:pageshadow="2"
     inkscape:window-width="1366"
     inkscape:window-height="694"
     id="namedview75"
     showgrid="false"
     inkscape:zoom="3.4793023"
     inkscape:cx="1.1496564"
     inkscape:cy="41.89153"
     inkscape:window-x="0"
     inkscape:window-y="32"
     inkscape:window-maximized="1"
     inkscape:current-layer="layer4" /><g
     id="g45"
     transform="translate(0,-23.587997)" /><g
     id="g47"
     transform="translate(0,-23.587997)" /><g
     id="g49"
     transform="translate(0,-23.587997)" /><g
     id="g51"
     transform="translate(0,-23.587997)" /><g
     id="g53"
     transform="translate(0,-23.587997)" /><g
     id="g55"
     transform="translate(0,-23.587997)" /><g
     id="g57"
     transform="translate(0,-23.587997)" /><g
     id="g59"
     transform="translate(0,-23.587997)" /><g
     id="g61"
     transform="translate(0,-23.587997)" /><g
     id="g63"
     transform="translate(0,-23.587997)" /><g
     id="g65"
     transform="translate(0,-23.587997)" /><g
     id="g67"
     transform="translate(0,-23.587997)" /><g
     id="g69"
     transform="translate(0,-23.587997)" /><g
     id="g71"
     transform="translate(0,-23.587997)" /><g
     id="g73"
     transform="translate(0,-23.587997)" /><g
     inkscape:groupmode="layer"
     id="layer3"
     inkscape:label="Layer 1"
     transform="translate(0,-23.587997)"><ellipse
       style="opacity:1;fill:#2196f3;fill-opacity:1;stroke:#2196f3;stroke-width:1;stroke-opacity:1"
       id="path4737"
       cx="-49.954987"
       cy="73.731438"
       rx="49.381607"
       ry="49.501648"
       transform="scale(-1,1)" /></g><g
     inkscape:groupmode="layer"
     id="layer4"
     inkscape:label="Layer 2"
     transform="translate(0,-23.587997)"><g
       id="g3"
       style="fill:#ffffff;fill-opacity:1;filter:url(#filter4787)"
       transform="matrix(0.4736692,0,0,0.47149961,22.031698,44.403433)"><g
         id="g5"
         style="fill:#ffffff;fill-opacity:1"><g
           id="g7"
           style="fill:#ffffff;fill-opacity:1"><g
             id="g9"
             style="fill:#ffffff;fill-opacity:1"><path
               d="m 103.604,25.648 c -0.146,-0.09 -0.301,-0.148 -0.453,-0.218 -1.236,-0.812 -2.623,-1.41 -4.033,-1.757 l -2.814,2.831 -2.728,-2.863 c -0.009,0.003 -0.019,0.003 -0.028,0.006 -1.352,0.323 -2.679,0.883 -3.88,1.639 -0.3,0.091 -0.597,0.209 -0.88,0.37 -1.749,0.982 -3.413,1.174 -5.232,0.607 -6.029,-1.879 -11.646,-11.08 -13.3,-14.462 -0.44,-0.909 -1.162,-1.579 -2.001,-1.996 l -1.202,-0.4 c -0.872,-0.15 -1.797,-0.049 -2.655,0.369 -2.179,1.057 -3.085,3.681 -2.028,5.858 0.257,0.529 1.214,2.436 2.765,4.866 l 1.034,1.563 c 3.235,4.71 8.349,10.561 14.758,12.567 1.271,0.397 2.548,0.618 3.82,0.685 l 0,23.104 c 0,1.193 0.235,2.304 0.646,3.325 -0.029,0.219 -0.068,0.435 -0.068,0.66 l 0.004,41.983 c 0.001,2.863 2.32,5.183 5.182,5.183 2.862,-0.002 5.182,-2.32 5.182,-5.183 l -0.002,-36.03 c 0.205,0.01 0.41,0.024 0.617,0.024 0.04,0 0.08,-0.004 0.121,-0.005 l -0.001,36.01 c 0,2.861 2.319,5.182 5.181,5.182 l 0,0 c 2.861,0 5.182,-2.319 5.182,-5.182 l 0.001,-41.187 c 0.272,0.26 0.571,0.5 0.916,0.688 0.666,0.362 1.384,0.533 2.091,0.533 1.555,0 3.061,-0.828 3.855,-2.29 12.368,-22.731 -4.505,-33.079 -10.05,-36.48 z m -7.273,23.208 -0.053,0 -2.723,-3.727 2.723,-18.204 0.053,0 2.725,18.204 -2.725,3.727 z m 11.533,4.972 0,-12.538 c 1.674,3.167 2.049,7.177 0,12.538 z"
               id="path11"
               style="fill:#ffffff;fill-opacity:1"
               inkscape:connector-curvature="0" /></g><g
             id="g13"
             style="fill:#ffffff;fill-opacity:1"><circle
               cx="96.303001"
               cy="11.725"
               r="11.293"
               id="circle15"
               style="fill:#ffffff;fill-opacity:1" /></g></g><g
           id="g17"
           style="fill:#ffffff;fill-opacity:1"><path
             d="m 71.368,63.464 -55.332,0 c -3.514,0 -6.374,-2.859 -6.374,-6.374 l 0,-50.716 C 9.662,2.86 12.521,0 16.036,0 l 55.332,0 c 3.515,0 6.375,2.86 6.375,6.374 l 0,50.717 c -10e-4,3.515 -2.862,6.373 -6.375,6.373 z M 16.036,4.249 c -1.172,0 -2.124,0.953 -2.124,2.125 l 0,50.717 c 0,1.171 0.952,2.125 2.124,2.125 l 55.332,0 c 1.172,0 2.125,-0.953 2.125,-2.125 l 0,-50.717 c 0,-1.172 -0.953,-2.125 -2.125,-2.125 l -55.332,0 z"
             id="path19"
             style="fill:#ffffff;fill-opacity:1"
             inkscape:connector-curvature="0" /></g><g
           id="g21"
           style="fill:#ffffff;fill-opacity:1"><circle
             cx="26.302999"
             cy="78.717003"
             r="8.9420004"
             id="circle23"
             style="fill:#ffffff;fill-opacity:1" /></g><g
           id="g25"
           style="fill:#ffffff;fill-opacity:1"><path
             d="m 15.944,108.062 c -0.266,-2.451 0.231,-4.461 1.208,-6.158 l 0,6.158 9.092,0 -2.117,-2.896 2.157,-14.415 0.042,0 2.155,14.415 -2.117,2.896 9.092,0 0,-6.142 c 0.97,1.692 1.462,3.699 1.197,6.142 l 6.999,0 C 44.456,97.333 35.658,91.924 32.252,89.834 32.101,89.743 31.944,89.676 31.786,89.608 30.79,88.944 29.672,88.456 28.532,88.175 l -2.228,2.242 -2.159,-2.267 c -0.008,0.002 -0.015,0.002 -0.022,0.004 -1.163,0.279 -2.303,0.777 -3.316,1.457 -0.155,0.065 -0.312,0.131 -0.459,0.222 -3.406,2.09 -12.205,7.498 -11.4,18.228 l 6.996,0 z"
             id="path27"
             style="fill:#ffffff;fill-opacity:1"
             inkscape:connector-curvature="0" /></g><g
           id="g29"
           style="fill:#ffffff;fill-opacity:1"><circle
             cx="61.112999"
             cy="78.717003"
             r="8.9420004"
             id="circle31"
             style="fill:#ffffff;fill-opacity:1" /></g><g
           id="g33"
           style="fill:#ffffff;fill-opacity:1"><path
             d="m 50.753,108.062 c -0.267,-2.451 0.231,-4.461 1.208,-6.158 l 0,6.158 9.09,0 -2.116,-2.896 2.156,-14.415 0.042,0 2.157,14.415 -2.117,2.896 9.091,0 0,-6.142 c 0.971,1.692 1.463,3.699 1.198,6.142 l 6.998,0 C 79.264,97.333 70.467,91.924 67.061,89.834 66.911,89.743 66.751,89.676 66.594,89.608 65.6,88.944 64.481,88.456 63.341,88.175 l -2.228,2.242 -2.159,-2.267 c -0.008,0.002 -0.015,0.002 -0.022,0.004 -1.164,0.279 -2.305,0.777 -3.318,1.457 -0.154,0.065 -0.311,0.131 -0.458,0.222 -3.407,2.09 -12.204,7.498 -11.4,18.228 l 6.997,0 z"
             id="path35"
             style="fill:#ffffff;fill-opacity:1"
             inkscape:connector-curvature="0" /></g><g
           id="g37"
           style="fill:#ffffff;fill-opacity:1"><rect
             x="5.5040002"
             y="110.845"
             width="102.236"
             height="12.743"
             id="rect39"
             style="fill:#ffffff;fill-opacity:1" /></g><g
           id="g41"
           style="fill:#ffffff;fill-opacity:1"><path
             d="m 59.05,33.828 -1.782,-0.657 c 0.14,-1.299 0.093,-2.623 -0.151,-3.94 l 1.721,-0.793 c 1.074,-0.493 1.544,-1.771 1.049,-2.845 L 58.884,23.414 C 58.39,22.339 57.114,21.867 56.04,22.362 l -1.722,0.794 C 53.477,22.113 52.5,21.218 51.423,20.48 l 0.657,-1.779 c 0.409,-1.109 -0.16,-2.346 -1.269,-2.755 l -2.252,-0.832 c -1.075,-0.396 -2.358,0.195 -2.755,1.269 l -0.657,1.781 c -1.298,-0.14 -2.623,-0.094 -3.938,0.149 L 40.415,16.594 C 39.921,15.52 38.644,15.048 37.57,15.542 l -2.181,1.004 c -1.074,0.495 -1.545,1.772 -1.05,2.846 l 0.793,1.72 c -1.042,0.843 -1.938,1.82 -2.676,2.896 l -1.778,-0.656 c -1.072,-0.399 -2.358,0.191 -2.756,1.267 l -0.832,2.253 c -0.198,0.538 -0.175,1.121 0.063,1.64 0.242,0.521 0.67,0.917 1.206,1.113 l 1.781,0.659 c -0.141,1.298 -0.095,2.623 0.15,3.938 l -1.721,0.792 c -1.075,0.495 -1.545,1.771 -1.05,2.844 l 1.004,2.183 c 0.496,1.073 1.771,1.544 2.844,1.049 l 1.722,-0.792 c 0.841,1.041 1.818,1.938 2.896,2.673 l -0.656,1.78 c -0.2,0.538 -0.178,1.119 0.063,1.639 0.238,0.521 0.667,0.918 1.205,1.117 l 2.251,0.832 c 0.537,0.198 1.12,0.175 1.64,-0.063 0.521,-0.24 0.916,-0.669 1.115,-1.205 l 0.656,-1.781 c 1.3,0.141 2.624,0.095 3.939,-0.15 l 0.793,1.721 c 0.494,1.073 1.771,1.544 2.845,1.049 l 2.18,-1.004 c 1.075,-0.494 1.545,-1.771 1.05,-2.845 L 52.273,42.34 c 1.042,-0.842 1.938,-1.817 2.675,-2.895 l 1.781,0.658 c 0.538,0.199 1.121,0.175 1.642,-0.065 0.519,-0.239 0.915,-0.667 1.113,-1.204 l 0.831,-2.253 C 60.727,35.473 60.157,34.238 59.05,33.828 Z M 47.252,39.43 c -1.124,0.518 -2.315,0.779 -3.544,0.779 -3.302,0 -6.326,-1.937 -7.708,-4.934 -1.956,-4.248 -0.092,-9.295 4.156,-11.251 1.123,-0.518 2.315,-0.779 3.543,-0.779 3.301,0 6.327,1.936 7.708,4.932 1.955,4.249 0.093,9.296 -4.155,11.253 z"
             id="path43"
             style="fill:#ffffff;fill-opacity:1"
             inkscape:connector-curvature="0" /></g></g></g></g></svg>